<mxfile host="app.diagrams.net" agent="Mozilla/5.0 (X11; Linux x86_64) AppleWebKit/537.36 (KHTML, like Gecko) Chrome/130.0.0.0 Safari/537.36" version="24.8.3">
  <diagram name="Page-1" id="W2-0t1dS3wwObOMYU6XW">
    <mxGraphModel dx="1985" dy="633" grid="1" gridSize="10" guides="1" tooltips="1" connect="1" arrows="1" fold="1" page="1" pageScale="1" pageWidth="850" pageHeight="1100" math="0" shadow="0">
      <root>
        <mxCell id="0" />
        <mxCell id="1" parent="0" />
        <mxCell id="XXfVhE3nksT0GZ8cm9VU-1" value="Red Boundry Router&lt;div&gt;HN: RED-SCR&lt;/div&gt;&lt;div&gt;IP:172.16.120.1&lt;/div&gt;&lt;div&gt;Ports: 22&lt;/div&gt;&lt;div&gt;Creds: vyos/password&lt;/div&gt;" style="rounded=1;whiteSpace=wrap;html=1;fillColor=#f8cecc;strokeColor=#b85450;" vertex="1" parent="1">
          <mxGeometry x="270" y="440" width="250" height="90" as="geometry" />
        </mxCell>
        <mxCell id="XXfVhE3nksT0GZ8cm9VU-3" value="" style="ellipse;shape=cloud;whiteSpace=wrap;html=1;" vertex="1" parent="1">
          <mxGeometry x="295" y="360" width="120" height="80" as="geometry" />
        </mxCell>
        <mxCell id="XXfVhE3nksT0GZ8cm9VU-5" value="HN:&amp;nbsp;networking-ctfd-1.server.vta&lt;br&gt;&lt;div&gt;&lt;div&gt;&lt;div&gt;eth0:&lt;/div&gt;&lt;div&gt;ports:&lt;/div&gt;&lt;/div&gt;&lt;/div&gt;" style="rounded=0;whiteSpace=wrap;html=1;fillColor=#f8cecc;strokeColor=#b85450;" vertex="1" parent="1">
          <mxGeometry x="260" y="280" width="180" height="90" as="geometry" />
        </mxCell>
        <mxCell id="XXfVhE3nksT0GZ8cm9VU-6" value="Hostname:&lt;div&gt;eth0:&lt;/div&gt;&lt;div&gt;ports:&lt;/div&gt;" style="rounded=0;whiteSpace=wrap;html=1;fillColor=#f8cecc;strokeColor=#b85450;" vertex="1" parent="1">
          <mxGeometry x="660" y="70" width="120" height="60" as="geometry" />
        </mxCell>
        <mxCell id="XXfVhE3nksT0GZ8cm9VU-7" value="ETH0" style="rounded=1;whiteSpace=wrap;html=1;" vertex="1" parent="1">
          <mxGeometry x="270" y="440" width="30" height="20" as="geometry" />
        </mxCell>
        <mxCell id="XXfVhE3nksT0GZ8cm9VU-8" value="" style="endArrow=classic;html=1;rounded=0;exitX=0;exitY=0.5;exitDx=0;exitDy=0;" edge="1" parent="1" source="XXfVhE3nksT0GZ8cm9VU-7">
          <mxGeometry width="50" height="50" relative="1" as="geometry">
            <mxPoint x="160" y="460" as="sourcePoint" />
            <mxPoint x="70" y="450" as="targetPoint" />
          </mxGeometry>
        </mxCell>
        <mxCell id="XXfVhE3nksT0GZ8cm9VU-10" value="&quot;Internet&quot;" style="text;html=1;align=center;verticalAlign=middle;resizable=0;points=[];autosize=1;strokeColor=none;fillColor=none;" vertex="1" parent="1">
          <mxGeometry x="70" y="450" width="70" height="30" as="geometry" />
        </mxCell>
        <mxCell id="XXfVhE3nksT0GZ8cm9VU-12" value="ETH1" style="rounded=1;whiteSpace=wrap;html=1;" vertex="1" parent="1">
          <mxGeometry x="270" y="510" width="30" height="20" as="geometry" />
        </mxCell>
        <mxCell id="XXfVhE3nksT0GZ8cm9VU-13" value="" style="endArrow=classic;html=1;rounded=0;exitX=0;exitY=1;exitDx=0;exitDy=0;" edge="1" parent="1" source="XXfVhE3nksT0GZ8cm9VU-12">
          <mxGeometry width="50" height="50" relative="1" as="geometry">
            <mxPoint x="180" y="580" as="sourcePoint" />
            <mxPoint x="160" y="610" as="targetPoint" />
          </mxGeometry>
        </mxCell>
        <mxCell id="XXfVhE3nksT0GZ8cm9VU-15" value="&quot;REDNET&quot;" style="text;html=1;align=center;verticalAlign=middle;resizable=0;points=[];autosize=1;strokeColor=none;fillColor=none;rotation=-30;" vertex="1" parent="1">
          <mxGeometry x="190" y="560" width="80" height="30" as="geometry" />
        </mxCell>
        <mxCell id="XXfVhE3nksT0GZ8cm9VU-16" value="ETH2" style="rounded=1;whiteSpace=wrap;html=1;" vertex="1" parent="1">
          <mxGeometry x="490" y="440" width="30" height="20" as="geometry" />
        </mxCell>
        <mxCell id="XXfVhE3nksT0GZ8cm9VU-17" value="" style="endArrow=none;html=1;rounded=0;entryX=0;entryY=1;entryDx=0;entryDy=0;" edge="1" parent="1" target="XXfVhE3nksT0GZ8cm9VU-18">
          <mxGeometry width="50" height="50" relative="1" as="geometry">
            <mxPoint x="520" y="440" as="sourcePoint" />
            <mxPoint x="570" y="390" as="targetPoint" />
          </mxGeometry>
        </mxCell>
        <mxCell id="XXfVhE3nksT0GZ8cm9VU-18" value="HN:red-dmz-host-1&lt;div&gt;172.16.101.2&lt;div&gt;Ports: 22&lt;/div&gt;&lt;/div&gt;" style="rounded=1;whiteSpace=wrap;html=1;" vertex="1" parent="1">
          <mxGeometry x="620" y="270" width="120" height="60" as="geometry" />
        </mxCell>
        <mxCell id="XXfVhE3nksT0GZ8cm9VU-19" value="DMZ" style="text;html=1;align=center;verticalAlign=middle;resizable=0;points=[];autosize=1;strokeColor=none;fillColor=none;rotation=-45;" vertex="1" parent="1">
          <mxGeometry x="535" y="408" width="50" height="30" as="geometry" />
        </mxCell>
        <mxCell id="XXfVhE3nksT0GZ8cm9VU-20" value="ETH2" style="rounded=1;whiteSpace=wrap;html=1;" vertex="1" parent="1">
          <mxGeometry x="490" y="440" width="30" height="20" as="geometry" />
        </mxCell>
        <mxCell id="XXfVhE3nksT0GZ8cm9VU-21" value="lo" style="rounded=1;whiteSpace=wrap;html=1;" vertex="1" parent="1">
          <mxGeometry x="490" y="510" width="30" height="20" as="geometry" />
        </mxCell>
        <mxCell id="XXfVhE3nksT0GZ8cm9VU-22" value="" style="endArrow=none;html=1;rounded=0;" edge="1" parent="1">
          <mxGeometry width="50" height="50" relative="1" as="geometry">
            <mxPoint x="520" y="530" as="sourcePoint" />
            <mxPoint x="620" y="600" as="targetPoint" />
          </mxGeometry>
        </mxCell>
        <mxCell id="XXfVhE3nksT0GZ8cm9VU-24" value="???120.0.0.1/32" style="text;html=1;align=center;verticalAlign=middle;resizable=0;points=[];autosize=1;strokeColor=none;fillColor=none;" vertex="1" parent="1">
          <mxGeometry x="340" y="540" width="110" height="30" as="geometry" />
        </mxCell>
        <mxCell id="XXfVhE3nksT0GZ8cm9VU-26" value="" style="shape=image;verticalLabelPosition=bottom;labelBackgroundColor=default;verticalAlign=top;aspect=fixed;imageAspect=0;image=data:image/png,iVBORw0KGgoAAAANSUhEUgAAAooAAAC0CAYAAAATmw14AAAABHNCSVQICAgIfAhkiAAAIABJREFUeF7snQdYldUbwH+Xy3IxVIaiggtREWe4cuYqzZE5ypH1TzNtWI7MtGyZlallmZa5claONNNURNxWKuAGTBAQWbJcrHv/5wIi48L9LlwV9XzPw6P3+853zvv+zvje856lArTiT16SgCQgCUgCkoAkIAlIApJAPgJmkockUDwBc5q+soRV73ahkqr4kPf6qcqxNx+t+pph9dT3OmmZniQgCUgCkoAk8EgQMC+7WqqxbfAEzwx4Au8GLtiY3yLm3H5+XbaWQ5fTwKIlr/04hY7lhfWi1ZKZcYOEiLMc/mMtv+4P51aWYuY0Gf0d07vbU9DGyTi7jDdmbifOsj0Tl75Ja3MtmoxUrl2NJNjfjy0bd3E2IdM4PFY1aD/oefq2b0gNG3NuJccQEfQvf6xaxz+xdxy36ipN6DNkIJ2b18GxvIZrMRfx37qcH/eEkaFIL+PEemhD34zgxP6/uZJSCqe4uScvfzeVar+9xie7EqV7/aEtLFIxSUASkAQkgZIQKKOGoooqbcby/ovVCVy/nA+/vUC8xp7Gvccy7p3hpExdyskMnboawrd9yfzd0WBph1u7Qbww7j0q3pjIomPXcz/6mhhfvpu7nQjNHUTaW/Ek5NoXmVzYPIuFh25i59KIDv2GMP2j2sybvoh/kxQaIapKPPbydMY1usjGFbP5LuIW1pVdqN+yKY42wnEbm210qmwfY8zMCbRK3M2aBSsJSrKgqpsXjztXRo0wFLNEVKZXSTL8YXpHmxLApsUBD5NKUhdJQBKQBCQBSaBMEcgyFHVDeDO/6s2lz9/kp1PpOQKqqNrrfeb1u8yXb/7IyQpdmTp/GDcXvcHXh28bYSoqtHmTb8ZVYN2EWey6KowqlS2N+45iWI/muNqruRF9joMbVrD2QASpt1UXYTz7v8iw7k2pZWdBWkosl07+wU/f+3BJ2FMqu/aMerEOx+bP4OezN3IMvmj8f1vEFq9P6NJkNSdP6CLTkpESQ2RkpDCtIgm/BPUfn06blnVRHwvMMbpEqPREosJCCS3SQaglLekKEWGxhIeFcOpsCpXmjeG5Xts5sT6UIl/Lm5Xm9fFuVYmgdUvYeCQ+W+aIMIICD+UJZU69p4fT0fpvvvlyOYeTs43Q8LDzZKmTexWvl1Wb//FWy2T2++7l6NlYbim0ZfMlcfuHgbzIfcfMhsbPTOLZXk2pZplM0O6lLFh1DF2WZ13F5bvanREiL123vMGnuxIKeO3UNHrpW6Y6rmf853tR4hxUuw7m89nPUks34pwZxe8z3mZ1SN5c0g2XL2KK4y6WX6pPr7Z1cSx3g5A8Mqtsn2DawldoapEj/+gfWD9a9/90/Be9ymd7kqV3MQeN/EcSkAQkAUng0SWQZShqY49wKHgo/ds25OdTgYiBXfHhd6B123ok//0rZ8UNbfpRfI8P49WOj2FzZC9ZjjaVDa06NkPl/yNHstxzZlTrNYEpz5Rn3w8f83VQKk5thzFu3LtYpExmSUC20WfdYjhvDqzO4QUfMjcoBXM7Fxp42Yq3sxLGsX13PII28cO5G1ChPk+OGk6PRpVJu/Q3525osK9SsdBQMuoKVG/VDk9bFam3Ukv1kdcmnuBYiIaXPBtT9ZdQopUYYpprJF9T4dnQE0dfP6KzIBa41DVo0dyRWydXczzHSCwYpNBvPXrduhjA2eZPMXDKM7yUfIZDvr747vub4Pg0o/UuPi/uSGPu3ovul1ayaOY6LDwH8dqo0TwbeJIfAnSKGsr3MM4Hp9OpnhvmwlC83RXJit3MkXp1KxL5bzDXlXAWr2SG/cKk537J6uB8OLdHIWS3b5g37ECj/Z8xbWUUFh7D+GD6HZm1ST58OsxHzE6QQ89FApQPJAFJQBKQBB55AtlDz9qr/H3wLM8PbkujlYH4C9efmVNr2tZN4MiaoOwPu/Y6J3yPcGNyJ9pW9WOHmHOnqtyajp6p/D3vWLYnyEzM0evqzo39s/n54IUsgzN661J+bzmfoV2bsirgMDeFiVe+alXKp0Zy5lQYsTrrICGeqIu388Kaeh41uRR4mmvY0nbMJPqYb+H7z45zo2YvxrxakdSA22tw1LgNmcOaweJdlQozMRExPeYIP/wVnM8LqHYZwGdrB+TJbA1Xtr7PWz8H6fcWCl0TEtJQeVTFTiQVrcSlmBnM1p+2UX/cK8xf/Cz/BZ0n6EwARw8c4Vx8jmlkVgWHKpD4b1yut1N/CTSgV/S/bPj+XzYurYr7Yx3o2HEgU599icRTB/Hds4d9xy6SlD2GrT/63LuG8uLO69rEg6xbc5gsx92VLRzs9RFN6zpiFhCBxmC+HyHk3EWsutenuvoE4dW68GI/W44s3cxp6lDfJYWg1dHCK2zaKzPSj837I0kVRSw1aB//RPWk5W2ZTZuUjE0SkAQkAUlAEngoCeTMUdQK4+UgZ0YMo21jK/yPp+Pcui1uwtO4LOSOxZF6ei8H4j+gY/vq7NwchWO7DrgLA+KXU9lLR1A74+IEkX+F3/EaCSP0Ulgy5h7VqSqMrnCNloRjPhztM5bxX31Gl1Pn+e9iEMcPHSU4QaQlvJT2tpnEx19Da9mCx5pcZdeM7ZyKFGZExBo2CK9hn9ysEAPOO+by9e5YrJyb0+8ZD879uBC/6PwmR+E5ilrSxVCzQfsv3woYFU69P+SrEe5iiYy4tCn4zn6VxQG3+QiG/qt5f/w2XBt50tDdnUZthjNjYF92fvURKwNSjPD2KdNLmxrH+QObsv5W1ujAyNdfYvgEL2wKDcUWVXYN5EWe1zQxUcTcxqq9wfUbWiytrbI9uwbzXcvl4CBihtejbkU1GY/1oGNrWywPbxce4nrU1oZw+KIiy7YoRfTe14oOSEKuzGmkig5Qrsx635A3JQFJQBKQBCQBSSAvgdzFLNrk4xw4OYpRbZtQLiCatu1ciT7yQ/55fZkX8PML58kOj+O67TAtO9Qmat+PiFFFoy5t3AG+efs0tRt74uHuQbPuY+jfvx2L3p2DX7xKOAd1f7oodV7CdNLTb49JasT/M/MYXDqDL4rwcOHVCg9jkdnrYj7lcEJ1i11u3hnHNDxHsYD4qvLY21miMzQSc21OLXF7v2GKf45xpM3kerweU1PMhwwLOJD1t+O3TXSaPJcx/duzLXAHcZqrxMZDS+FWNOe/YgxVZXqhtsG1WTvhUexAuxY10Vz8mw2LfdgTpkeuInKo2LyIy8NQoynk8Su4kryIJLJuZ0acJ/hWV+rXccCikYbdW4Px8qqHc2w9bC8dFs+Ke7tkz7RiNXzB0WxjZC5ZqvItSUASkAQkAUng4SFwZx9F4SHzP+iPWYt2NHNvQxuXCA4dulTAmBGerv17CXJ4nK69uvJ4NWE4iq1ocm0pTTSXxQJkF7ea3F4jIManqVXLhowrUWLlch5w6Qlc9N/P9l9+ZPZ7Szhu3ZRWDayEpy6JuAQzHJ3sUKWd49/TTnR6ygt7tYpytbrSs2WlwvMTs6LVkvLv7/ikdWZ471piBXHJL5Vdc1rWNyPq1Gny2EpkXo/jslg4o1s8E3n5Com6Mc3iLsE0NvYmlK9AOZ2FkhmBf0As1k0EY8WbEhbWS+3QlKf/9w5fLv6eT0d3oEr0Xha9M5bX3/+WX/aeJc5Iw52i8qI43fI+U5LvGRc49581dZs+gVelUxzefZyYBt509qhBfFDwnUUxStM0VThhTGo0okOiLk2JMZUwMh5JQBKQBCQBSaBsEci34fb1gEOc0LTg2f91olrYIQ7phnsLXNr4w/ierMgTz/Wg8pl9HIrJYyxlhnNgbwjlOw5nePs6ODm40KTPS/RrkCQWXASI+Ym6S2x903oQw3o+RoOajtjbV6Nhx9bUMROewcs6C+cW509eoIZ3KxxI5MCP33DYfigff7eQWf+rS9J/cdzK9TAWEC7zEj7bz+D05GDa29/xHaks7Kjm6oab250/Vxd7rHKDqLC0daZGrbo0bvs0Y6e+gFfKPtbtULjiWSeGui4DJk9iZO/2NPeoTY2adWna/SVGdrIlJjCQK1ko0wnauoZDaa0ZPXmkWL1dm5qu7jTrNIjxQ5ojzGT9Vz69zLB2b0cb+yh8vp/Kq+PfY/6aXQRcvlHI46c/srx3DeWF4RiyQijJdzHvM/j8ZVy6dKP6+QBCE0/if709Pbw0hJwv2CFRmK4pgmliuBIDtZp7U6uSFRYWFog+ibwkAUlAEpAEJAFJQBDIv4/izUAOHkulQxd7zq88kmPcFOCkTebfvce43rIl58Rmx4n5nGoaorbPZ47lKJ4f/gFzxUqQm9FBHF40m1Un7uxrmC6GGas9/jxvDXXA1lpDcuRZDi6cz+aL2UOmCQf/4EjfcbzQ+ThzfU+zad67bCqYXRauBe+I31quHtrO4UFTGNjXg6MrgrPCmDl24Y3ZXfKF18Rs44M3V3A+666augOmM6dvmthw+zLBx3/h0407OaN0D0VdFJo4sXglkd7thJE6sDI25eBGXBin/pzHmk3BuXM2tQlH+H7mLZ4eMoD+b3ajajmx4Xb0BU5sPVrMApe8ejUQen3PewfzqVPiH4byQlnESvJdQ/T5YJItqxLkf4EMbRqBJ8Rq5IapnLugb4l4ESmL/Sq7TF3Eq81zfdZ4zFpLPxE8M/QX3pn6G5cK92+KiEzc1sbht2Y9DV/uzyc/jMJSnUGA3B6naF7yiSQgCUgCksAjRUDnOzEwflqQh/BCdX+PeYMS+PrN7ziW7SYsGKiUv8Uwc/2+TJ7YE+3+9fy25zgXYm6KKXlVKHcrhqt55h+WMiH5uiQgCUgCkoAkIAlIApJAEQSMMhTNy1XCxrE5z096hXpHZzJ51R1PWRHxl+q2eeVGPNH3KTo0r49L5QqY3Yhkz/cfssJf7K8oL0lAEpAEJAFJQBKQBCSBu0rACEPRmscn/8TrzVO5fHwTCxf+QbDYIkVekoAkIAlIApKAJCAJSAIPJwEjDMWHE4DUShKQBCQBSUASkAQkAUlAP4F8q571B5F3JQFJQBKQBCQBSUASkAQeRQLSUHwUc13qLAlIApKAJCAJSAKSgAIC0lBUAEkGkQQkAUlAEpAEJAFJ4FEkcPcNRbER9XPzVjGrX3XufmKPYhZKncsKAZVjbz5a9TXD6pXslBeLx95gxep36VxR7vhdVvJUyiEJGCRQym9cadsNg/LJAJJAKQnk23BbXaUJfYYMpHPzOjiWFxtBx1zEf+tyftwTVsxm0KWUoCy8blWD9oOep2/7htSwMedWcgwRQf/yx6p1/BN7H1Z2K5XH3JOXv5tKtd9e45NdicZuiHmHvKniKXVeqnB6+mPmDY3nm1HzOGLsUYSlTr9gBEbKczOCE2IT+isp96HMFBT9Qfpt3pxXF0+mzo53mfprWM6xoZa0fXsZr9uu4o2Z2/MdpXnXVbNqz8Slb9LaXBzvmJEqNuGPJNjfjy0bd3E2Qfk56iaTs6zJYzLFbkdkTcvxC3i7nTUX10/h/S1RJThlypRC3WN57na78dCXH1PmvYxLH4FcQ1Fl+xhjZk6gVeJu1ixYSVCSBVXdvHjcubI4t+QhNhTFSR+PvTydcY0usnHFbL6LuIV1ZRfqt2yKo43wgcbe4w9DWZNHX6mR9/QS0KYEsGlxgN5n8uaDRiCTC5tnsfDQTexcGtGh3xCmf1SbedMX8a8xJzaZTO2yJo/JFAOrRnh7JeO78z/aPdYKx61buXI/+1r3WJ570248xOXHhEVRRqWfQI6haE69p4fT0fpvvvlyOYeTs2tpeNh5TuR9T2VL476jGNajOa72am5En+PghhWsPRBB6u1wFtVpP2I0Qzu4Yy/O0T35ly+JBUfSVNbU6jCUYf3a4uFcEVIiCPRZx/KNJ4i/bZeJtDz7v8iw7k2pZWdBWkosl07+wU/f+3CpgO2mLmeLbTkzESaBa8Z6oczr492qEkHrlrDxSHy2Vy4ijKDAQ/qJ3e27CuRR2T7BtIWv0PT2KXajf2D9aJ1g6fjnHj+nooLHU4wc2BHP2tWwK6cl5fJZDv++inU5+aUsHhGtkvy621zKcPxq18F8PvtZaulGnDOj+H3G26wOyVtIzWn6yiKmOO5i+aX69GpbF8dyNwjZvZQFq45xtYiPorlzB8ZNe5Ga/t8xa/kxEow5mrBYXtnyTK68mldn+5LlADWrRr+Pv6TL6Q+YuOZCjlev2Eju8UMLWr2+hLcq72VjkjudGzpQXhsvjshcxpKt57J1MKlEWtKSrhARFkt4WAinzqZQad4Ynuu1nRPrjTgD3mQyKZCnuPZZ7c6I+TNw3fIGn+5KKDD6oKbRS98y1XE94z8/QJ0xxpfV0qhp1ag1zdICmb89impfPk5Lxz/YFl1EpShNQgrfNSiPgW+cusFI5k9vSHhgeRp5CS/pH78S6NaP/p5WhG7+is82nEecYsvdajf0q/nwlh/9+sq7piSQPW1QXYMWzR25dfIwx3OMxMKJmFGt1wSmPFOdC2s+5u0332WBbwZtxr3LyKblybYFLXAfMplxbTPxnf8Ob03/gcCaPejknHfOlhjO6/oWM0bW5fLv85n21gSmf+cHnScwsa+r8F5mX9YthvPmwOoEr/iQCePfZNrsZfiGp+mZ56imRp/pfPf9fF5qduf838LyF3FHc43kayqcG3riaFlEmHt5W4E82iQfPh02mMHPf8TOhDRO/jiGIYPF78HDmLUnOfcjYG1vw63ALXz/2VQmTJjG1zuv0+JVkV9eVlkaKYtHWX7dS0RlLa3MsF+Y9Nxghry2gnPFOKDNG3agUdgypr36P2GgHaFir9E866W/0Fm6PMGbM0bhfHQeHy8zpZFY1ugZJ495w9a4BnzDxFdG89pn+6nQbyKvPG6f0/4YF5cxobWJJzgWoqGaZ2OqFuz4GhORicIWlsdA+5wZxvngdNzquZFvvpFOHjNH6tWtSKQ4i/16jn1mTFktnUpWNPRuCqcCuBAXiH+4m+i4O9z1/CxaZkPyKPnGidjVFUne/yUf/xpJ3QGDcfv7C6YvPUe1p7rROKfK3412o2i98j95eMqPUo1luNIQyDYUzargUAUSY+OKnotoJubxdXXnxv5V/HzwAtGxwgu4dSm/B9vxeNemWOuksGhEl45ORGxfweaACGKjzrJj+db8H0/Rs+3Z35Mrm79l5b6zRMaIHvvJ7azcFkqtju1wy7IUVZSvWpXyqZGcORVGbEI8URcD2fv7fkKL+RCXCERmMFt/2kZso1eYv3gBn777Gi/064BHlRIYnSUSoMBLJpNHS/zhtSzbepBTFy4TGxvJ2d2/sPui8Ao3qZlrkBsUWVF+GYxFBhAEMiP92Lw/klStmP8btI9/oipSt65joc6PtduTTJwxFBvfL/h0zUmK7Ls9glQ1l/eyaV8UaaI7dDPsL7Ye1dCsizeV77bxpr1OguiUqeyqYlcWVuUVlMdg+5xGyLmLWNWpT3XRxprV6ML/xvencTlRiKzqUN8lhaDz0blzA5WW1VIXQUsPWje34Iz/edI0sQQGRFPHu+X9M8YNyaPkG6eDknmJU/4RhJ4KJi49gjPiexhx6jxXLKpStZJxhfWu5MXDUn5KXQBlBEoIFOpcFvmS2hkXJ4j8K1wMcOZc2qtcCkvG3KM6VUXjGWFTnWoVUsW9K7kNjjYxjDAxZtYg5xWVrRu1hRHWYOQC1o/Mn5r2egy2ukY4U0vCMR+O9hnL+K8+o4uoYP9dDOL4oaMEJ2QUEDGTsF8n89yvRUpu4IGWRP/VvD9+G66NPGno7k6jNsOZMbAvO7/6iJUBKUYsEhHet94f8tUI9+xeuzYF39mvsjigoMzFiWQ6eVQ27nR7pi8dPF1xqGSF2kyFZXmxWCfUWnGPXVl+FafP/Xpmirwwrexa0eHJHT7WppEq5mtYWlvlzwtzD4ZO8sLa6ir7L12h7J+SeW85a6KjiMntLGYSHRWHqll1nES7kTttxbTZlj82477x4t27zOe2PAbbZy2Xg4OIGV6PuhXVZDzWg46tbbE8vJ1zN+pRWxvC4Yu6dir7k6CorJqAs6WHN83LBbH2rG4wVktEQCAJfb1pWWUHO+KMGX42DWdD8qgUfOOysGjSSBPlVJueJpwv6aTpPpradPE/CyyVf3WzorqrefGAl58sQPK66wSyi6zmKrHx0FK4Fc35rxTzk7SiqmvQaPJW8EzxO48euoKpM6A+G8v3J4qeUKiNO8A3b5+mdmNPPNw9aNZ9DP37t2PRu3PwM6oBUcgwPZGwgANZfzt+20SnyXMZ07892wJ3GLHiUkvc3m+Y4p/z8ddmcr2kX6/SyqNyotdb7zHYYg9Ll6zlXPR10UjZ0fmtT3lSZcTXTmF+KaR8D4OZMC9MJLVWq6sf+a9COaG9yemfP+JPxzFMHf0Kpy/OYW+sySYn5klcjyTGlIvcmEzBOZPMIkYKtBniWV5kZmaI/o7Opsi6zNT3yL2nKo+9nWXWRzvRqOwwBZ+8AHL+X1AeBRgyI84TfKsr9es4iMEfDbu3BuPlVQ/n2HrYXjosnt1JR1FZ1SOWcbeEw8C7BXbW9rzy/SrGZOcoanMN3i0r89dfOXPGFUVqCs6G5dEVPIPfuALyimqP7i+70IrCm1XPCta/opW8K3nxUJSfopnJJ6YlkG0oZkbgHxBL/w7taFbpX47q295DE83laOjqVlP0iRLF0I+4VJWpVcuGjCtRxIvGU5scRdR1a6o52Yp+dHYlV1k742x353OoTQwl9Go5mnvWxuJE0B3vpD690hO46L8/62/HtnNMWvQKrRpYCUMxT4sm3lNXsKdyebXY1iaOlNxVNfoiVHhPGLKxsTfBowLljKvTZF6P4/J1hekoDVaUPKL10WhU4mOpZ98+6/p41tfw77w17D+XY5Bb1KCKzvUbXiDhYuIxKr90RcKqEvYVLUi/liDyQnljqBSFMeHuSl4YI0BJwoq5ZP8c/Y/TqQv5rdFHvDDuSUI+3UZEAad06TiLie2pogZbWpE7Q9LMjsp56qkxopeasxgGSxF1xrp81gSW7EtVjvJiWFRz4xq38hQjdQ03aolW63RWkbaipqsY5ojeS3QB4610fAprr7JrTsv6ZkRtP21ExzE7nlLzKSyOGAIvII+C9hntBc79Z81TTZ/AptIpNu2+jPMUbzpXqUF8UHCRi6r0JJ97q1ScLdyFQWjDhQ0fsfBgUk6c5rgPnsFLYvi58s6dxBvRhJSasxJ5FHzjiuNVVp6VlfJTVnhIOYonkNMPTSdo6xoOpbVm9OSRdGlSWzTA7jTrNIjxQ5qL5lhcmeEc2BtC+Y7DGd6+Dk4OLjTp8xL9GiRxyDcAYVaJRbdn2OsXTb3u/fCyFcaLqiIN+j6Fl1Uev4mYg7fj91NU6jme1/o0x83JAWe3hnj3HMGEwV45Ax8qqrQexLCej9GgpiP29tVo2LE1dcyiCL9c0AspFrM8NY1vvv2KF71KMK9QbJY6YPIkRvZuT3OP2tSoWZem3V9iZCdbYgIDuWKU96B42IqeGiOPWFV+JQZqNfemlhhatrCwQH0bdZow7OMtqePpTtb+zWo7mgwawuP2elwPxcWjKL9ua6bCtuMEFny/gAkddZ2Fkl4VcHB1w80tz59rNWxLkL0llSD/e/dBnvQw/li4hhDXoYx/pm52HcwVqrScNURcCCWjtjdtXISpqLKiRtfetLEveY6VirPoqAYGxlPl8cEMbF2fmi5uNOk2nN4N0znrH5S1QvT2parckaFDvXF1cKLO48MZ1EqL/95/Chg5peWjS01M07B1pkatujRu+zRjp76AV8o+1u24HyueFcijpH0WBnnw+cu4dOlG9fMBhCaexP96e3p4aQg5f6kEI0ml42zh3poWNpfxP3qeyMjInL8w/j56hkx3b1rc4/KoSB4l37hSVYa79bKB8nxfys/d0lXGa2oCubMltAlH+H7mLZ4eMoD+b3ajajkx4T76Aie2Hs1Z4KIRven5zLEcxfPDP2CumNF9MzqIw4tms+rE9RxHujA4f/mKxdYv8/KcRVikXSPqxDGOx9TCIVdyDdE+c/kwdRBD+4xh5nO2qFOTiAk7y7EdsblzG9PF16Ha48/z1lAHbK01JEee5eDC+Wy+WMQYVUnJaOIIOpNI73aDaT+wMjbCi3EjLkxsuzGPNZuCi/d4ljTN4t4zRh5tHH5r1tPw5f588sMoLNUZBNzeHiczhE0LVlH5f6+JRToabl5P5tLfO9lxrg5dC6ZfXDwiR5TkV3aUKsoJr5CZ9hpxwutrhDMgv0QWXoyY9UX+e5kXWT/lXTaE32vLXYhRnDwRFegydRGvign5ty+PWWvpJ35khv7CO1N/41IJRc6M2smi5U347JXXeP7sdJafvF3PSstZbJV0eDXLPF/n+U8X0zfxCiGH/TgU2ozmBcvGPfmdyuk1Yg/TjBEMeGkGA2zU3Iz7j2PrPmfVnrh85Sjj5A4OVRzAu3NrUeHmZU5s+Iol+64WKGul5aNTWi1Wq05nTt80seH2ZYKP/8KnG3dy5r7soahEHiXts6jLYmVzsmVVgvwvkCHmyQaeiMKiYSrnLmSNERl5lYazBfV0XsPEfzgVkb9Nv3EmgGDVKLyb27Hbp+BWPkaKqDi4cnkMf+MUJCr2y71b7Yb+1A2V5/tRfvRLKu+WTQK677n8kwxKXwZUNtouU3/W/vzx09rqZrJM3bV69UhyttC2en2FdtXkx7VigLr4svpI8jHAxBCzkjyXnIsvhyVhKt+RTMtgGdAzDlk2rVkp1QNAwKoBnvUS2bt+F5dL6EV7ALS8/yJKzsXngeRTPB9TPZWcTUVSxiMJlGkCRi7VKNO6SOEkAUngoSWQfTLLBOsfefnLA/nmLT60KkvFJAFJQBIoAwSkoVgGMkGKIAlIApKAJCAJSAKSQFkkIIeey2KuSJkkAUlAEpAEJAFJQBIoAwSkoVgGMkGKIAlIApKAJCAJSAIlX6V4AAAgAElEQVSSQFkkIA3FspgrUiZJQBKQBCQBSUASkATKAIGHw1C0cKHzq5/y/Yq1rF+/niWvNM3ZuLsMEJYiPDgExGbnz81bxax+1SmyYigJ8+BoLCWVBCQBSaBME1A59uajVV8zrJ6eE8hMLPm9TMvEot/V6HI23Fbj8cI3zOztUOADmc6x78bwhd/tjX4VymLuycvfTaXab6/xya7Ekm+8rDC5cq0G80KbNDZ/NA6fK6lkpqfmbBKuMAIZ7B4QUFLGzGky+jumd7fPOtVFq80gNTmWiwF7+G31Vk4mGLvnjjUtxy/g7XbWXFw/hfe3ROVu6H4PFJZJSAKSwMNIwKoG7Qc9T9/2DalhYy6Ojo0hIuhf/li1jn9iizhmwKI+w754H68D7zFtg+4UHBVOT3/MvKHxfDNqHkcKHjhmSm5W7Zm49E1am4sjXzNSxQbykQT7+7Fl4y7OJpj4AAtTyn07rpsRnNj/N1f0HS2sND2lNokp0lIq0wMULsdQ1HBx6yze8bPAovFzfDC8KnvmfotvrIYb4szjIop+GVHTDDuHqlgknOZUaALXHoByX0bA3WMxlJcxTfRuvv5iG+FaC2xqtWbgC88x5W0NUz/YSqQxtqJVI7y9kvHd+R/tHmuF49atXCnbhfke54lMThKQBIwiIE5Ueezl6YxrdJGNK8RpQhG3sK7sQv2WTXG0EeMQsfo+QCrs2vana8VjLNkZXoKjEo2SsIjAmVzYPIuFh25i59KIDv2GMP2j2sybvoh/79tpQ0WIWuC2NiWATYsDlAUuZah7mVYpRb2nr+cYilpSRS8j7Ko4rczhOhqtDQmXwwjN91U2p+kri5jiuIvll+rTq21dHMvdIGT3UhasOpZ11qrK9gmmLXyFprdPMxv9A+tH6/RJx//20XK6nypranUYyrB+bfFwrggp4qxXn3Us33iC+Nx6JipX9+l8+2w0ixfH4z2kO141KqFNvsCWrz5kY4gqS55pT9jknClcn8/W9heRa0n2mcVYUbAyxJMKHk8xcmBHPGtXw66cOLrs8lkO/76KdQciSM2D2sy+MU8NfZZuLerhUC6DJHFk4IFfl7L235wjxBTJfE/z7gFLTEkZy1ZJm5FC7GVx9qsoC5ERYSy2a8TXwx+jWdU/iIxRbulZNWpNs7RA5m+PotqXj9PS8Q+2Red536I67UeMZmgHd+zFedcn//IlseBxx0rCiHJWfFkViigpPypbPPu/yLDuTallZ0FaSiyXTv7BT9/7cOl2vVAS5gErGVJcSeCBIWBeH+9WlQhat4SNR+KznSiijQoKPFS0Cua16dXXi6u73ufv0njFik5BwRMtaUlXiAiLJTwshFNnU6g0bwzP9drOifU555ebqo0S0hj8nipoM9Wug/l89rPU0o04Z0bx+4y3WR2S1xDP3lv1rcp72ZjkTueGDpTXxovjd5exZOs5dKiV2iSG0xIyiLa3cd9RDOvRHFd7NTeiz3FwwwrW5toShm0kBRlVJoPknvWsVDrzhh1otP8zpq0UZ4R6DOOD6aN5NvAkPwSkoU3y4dNhPlCsm1e43Lu+xYznynNg5XxWnovDzOkxBo+dwMSM95mxKSxfj0tV3pvBTx9g7cJ3WBCZSqW6zahxXfexzyRg8csMWWxG9X6f8EXnk3wwaS0XCnTorO1tuBW4he/XXSQ6WUXVZs8w9tV3sUx+mx8Dc0zFcg0ZNv1dut7yYfncJZwRnlSbOq3p6GgvhuLjsocJjJBZKUsZThmBtDRRtlQVMFcbs+2nFQ29m8KpRVyIu4J/+HDRwDvw57aYHA+5Be5DJjOubTwb5r/D/phKtHp+PCOc1YTmiqUkzB0dii6rysq8dYvhvDmwOocXfMjcoBTM7Vxo4GWbbzqIkjDKqMpQkoAkYDQBzTWSr6nwbOiJo68f0QaPyFZh07of3ez9Wf5XjkFmdKKmf0GbeIJjIRpe8mxM1V9Cidaaro3C4PdUSZspvvBhvzDpuV/QzRv8cG6PIiGYN2yN6+IPmTj/CmrX3kx8fyKvJEzhq/3inHBFNomStMyo1msCU54pz74fPubroFSc2g5j3Lh3sUiZzJKAG7kjr8XZSEUqUcYfGG0oZkb6sXl/JKnCVksN2sc/UT1pWdcRs4AIZfO/1O707O/Jlc1vs3JfdDbcmO2s3Naaed3b4bYlLL+xZ54kDMqfORSWbQHGnz9CvGKoWuIPr2VZnvCxu39hd6eveKJJTdSBIVlGoG3rvnR3PM/qt5bjF5ftcYqN28yF2+8ZK7Ni+WTA4gmoqVCzDUOfbISZKCM6A17xZelB6+YWnFl2njRNGoEB0Qz2bknVP7eTNY3IohFdOjoRsX0um3PK7o7lW3msxSjEWcLZl5IweQUqqqyqGygo8yrKV61K+dRIzpwKI1bXGUqIJ+pi3gSUhFFMSAaUBCQBYwlkBrP1p23UH/cK8xc/y39B5wk6E8DRA0c4F69noqG6Fj37tiBp90yOlKUhXu11EhLSUHlUxU6MmEej5LuspP1R8D1V0mYakS+ay3vZtC+KLJs97C+2Hn2ayV28qXzgL+KzP+dGxFZEUDMxL7WrOzf2z+bngxey0oreupTfW85naNemrAo4zM2cV0ttIxUhwv28bbShqBUfr9w1Bdo0UoVTztLaKmf417AqKls3alexoMHIBawfmT+89noMtrrlpnm9gjcvEBxRwE1oOJncECobd7o905cOnq44VLJCbabCsryYgBxqnSOz8EjWdkV92YczuvFzPZfRMuuJQ95STkBdvT+fru4nXlChUmm4FnqIZd9uICRDeRyWHt40LxfE2rO3xEtaIgICSejrTcsqO9ghOgMqm+pUq5DKpbAruR0cbWIYYaJwN8hJRkmYfBIVUVaVlR8tCcd8ONpnLOO/+owup87z38Ugjh86SnDCbcWVhFHOSIaUBCQBYwloSfRfzfvjt+HayJOG7u40ajOcGQP7svOrj1gZkJJnTr+KSq3608PhJKt2/Fc2F1jmTLUxXRtl+HuqpM00Jlc00VHE5JoImURHxaFqVh0nYUvcmcpmTIx6wqqdcXESU6H+ChcT6XIu7VXx/UjG3KM6VUVa4Tl+jNLaSHpSv++3jDcUtdo8FSFb/oLTuorVKmv0MAXfz8by/Qk9PbACL2vT00jTb78Vm0zWQ5UTvd56j8EWe1i6ZC3noq+LTLaj81uf8qTqjtQG5TdSZsOCyRDFEdDE7GHBnD8Jz8zkVko88UmpyrzVuZGKjoh3C+ys7Xnl+1WMybpvhtpcg3fLyvz1l84nrSvHGjSavIUrU/zOK5mSMHfCF1lWFZYfbdwBvnn7NLUbe+Lh7kGz7mPo378di96dk+vpVhKmOLbymSQgCZiAQHoiYQEHsv52/LaJTpPnMqZ/e7YF7iBnUArUNejWvxXXfT/hUEJJP2ImkFVfFKry2NtZojNqEnVtngnbKIPf0zzyFNlm6pO5qHtmZgj/j65Jz7rM1EVublZUDCa9ry2tjWRSaUwT2d0hKkBpNCqRYYX3PdImhhJ6tRwNPGtze82LaVTRE4t1fTzra/h30xr2n4skNiGRxGsVqaIz/3MvDZEXxbzI6g3xsNdfxO+pzHrUeNRuaTOSiY4IJzziMrFGG4mCloW7MAhtuLDhIyZPmcKUrL+pLD5yk/pi+LmyyGZtchRR161xdLLN9YarrJ1xtrtTBpSEUZI3RpWf9AQu+u9n+y8/Mvu9JRy3bkqrBlb5k1ESRolgMowkIAmUnoBwfMSK3UEoX4Fyuc2HWEjZoi+9nM+w9c+gO16o0qdmkhhUds1pWd+MqFOnswxb07VRhr+nJlEgTyTqGm7UynV5WVHTVbj+oi8TnbfTX4xNokgeTTSXo8HFreYdu0VVmVq1bMi4EkW8EbOiFKVXxgLlWEwqrMQSf1c3N1wdKwjr3BL76q64ubniWKEEtqRYQXolBmo196aWGO61sLAgax2C7hJzPHb8fopKPcfzWp/muDk54OzWEO+eI5gw2Mu0G2WnicyNt6SOpzsVdemr7WgyaAiP2+fVSUvS0S3sivFg6ISRdGgg3MhVnHBr1oMhT9Qly9S9lzLnYHr4/jFxGSsGkIV7a1rYXMb/6HkiI8Xq6ay/MP4+eoZMd29a6DoE6WfY6xdNve798LIVuayqSIO+T+FllaezoCRMMXLkPlJUflRUaT2IYT0fo0FNR+ztq9GwY2vqmEURfvm2511JGCUCyTCSgCRQIgJiw/0Bkycxsnd7mnvUpkbNujTt/hIjO9kSExjIldsGg1l1nujfhlS/zewvdqJcBRxc3cS3Ns+fazVsTe5FEVOubJ2pUasujds+zdipL+CVso91O3IW2JisjVLwPS0R+KJfUlXuyNCh3rg6OFHn8eEMaqXFf+8/WTux5F7F2SRFR33nSWY4B/aGUL7jcIa3r4OTgwtN+rxEvwZJHPINyJ2fqCSqBzFMjh1uRu2np+XbcPvJyZ/zpOgHlWjDbW0cfmvW0/Dl/nzywygs1RkE5G6PoyHaZy4fpg5iaJ8xzHzOFnVqEjFhZzm2I9bIIUYDyDND2LRgFZX/95qYeKzh5vVkLv29kx3n6tA176s3z7L6k89IFNvjDJz0OY7lddvjnBPb45zIkeceymxApQf3sYnLWJEgLKin8xom/sOpAnNbb4hJ58GqUXg3t2O3TwJBv3zFYuuXeXnOIizSrhF14hjHY2rhkBt3uoIwRQqS54Gy8pMuplNWe/x53hrqgK21hmSxRdPBhfPZfPHOHF0lYZRIJMNIApJACQho4sTilUR6txtM+4GVsSkHN+LCxJYs81izKTjXc1iu6dM86RLExvnnshdZFJWUhRcjZn2R/2nmRdZPeZcNtye9FfWuUffV1B0wnTl908SG25cJPv4Ln27cyZncBTama6Mw+D1VILjYr7LL1EW8KhYk3r48Zq1FN3M9M/QX3pn6G5dyjPKMkzs4VHEA786tRYWblzmx4SuW7Luaf4pccTaJorQ0RG2fzxzLUTw//APmihVAN6ODOLxoNqtOGHkgiQL1y1oQnfukjE2eKGuIpDySgCQgCUgCkoBCAmbO9P7gC3pd+oJJP53Kt1+vwhhkMEUEsvdRnGD9Iy9/eQDdskV53R0CRi9muTtiyFglAUlAEpAEJIEHn4Cqgh2pgWtZsve0NBIf/OyUGggC0lCUxUASkAQkAUlAEjARAW3KOXZvOGei2GQ0ksD9JyCHnu9/HkgJJAFJQBKQBCQBSUASKJMESrCkuUzqIYWSBCQBSUASkAQkAUlAEjAxAWkomhiojE4SkAQkAUlAEpAEJIGHhYA0FB+WnJR6SAKSgCQgCUgCkoAkYGIC0lA0MVAZnSQgCUgCkoAkIAlIAg8LAWkoPiw5KfWQBCQBSUASkAQkAUnAxASkoWhioDI6SUASkAQkAUlAEpAEHhYC0lB8WHJS6iEJSAKSgCQgCUgCkoCJCUhD0cRAZXSSgCQgCUgCkoAkIAk8LASkofiw5KTUQxKQBCQBSUASkAQkARMTyHOEnwqn3h/y1Qj37HP9tCn4zn6VxQEZeZKUYYrnY+Lceeiik+Wn+PJjKj4PXcGRCkkCZYiAqeqpknhMpbaStGQY2T7rL2/5jvBTV6iKk50VuptoM7keH01iqjbfmzJM8Xz0Y5Z3bxOQ5af48mMqPrLESQKSwN0jYKp6qiQeU2mhJC0ZRrbP+sqbPOtZHxV5TxKQBCQBSUASkAQkAUkAOUdRFgJJQBKQBCQBSUASkAQkAb0EpKGoF4u8KQlIApKAJCAJSAKSgCQgDUVZBiQBSUASkAQkAUlAEpAE9BKQhqJeLPKmJCAJSAKSgCQgCUgCkoA0FGUZkAQkAUlAEpAEJAFJQBLQS0AainqxyJuSgCQgCUgCkoAkIAlIAtJQlGVAEpAEJAFJQBKQBCQBSUAvAWko6sUib0oCkoAkIAlIApKAJCAJSENRlgFJQBKQBCQBSUASkAQkAb0ETGwomtP0lSWsercLlbLOAZSXJCAJSAKSgCQgCUgCksCDSsDcaMHNPXn5u6lU++01PtmVSP6ToJXGZo1rlxG8OKAt9aqouRYRyK7VS9kUmIBGaRQy3ANHQOXgzdDnutOkXh1cnSpyc88sxi4OIOO2JhZteGv527S1KKialtRjC3n1Cz+uUYE6nQbQr2tLGtR0wMY8lbiLJ/D5dTVbTxpXfgzKkyWGikr1uzN0SE8ec3emgvY6Mf/5snzOOgKuKy/9BtNSKdXLNHXHoDwFs0D326I+w754H68D7zFtwyUyFcqssmlIn5HP06NFbapYpZN4KYDda1aw2cj80ieSvCcJPBAECtadeyq0Go8XvmFmb4cCR7Glc+y7MXzhdx1tTtvbJuMYiyZ8gW+Crm3Lfm+G1z7em7IRp9eW8nb7nLOQC8mfSdivU5n6aySNRn/H9O72ouXMf2WcXcYbM7cTZ96S136cQsfyIoRWS2bGDRIiznL4j7X8uj+cW7rXDMqzntBMc5oUm9Zu6r6hROYwMgvpI2/kJWC8oVhqfioqtBjFO2OaErpqLlOP36Bmr1d4deIEUqd9yB+R0lQsNeIyGoHKqhzmSUHs33CMiAEv0KKgnBmBrJo2hU15WhhVxVaMeqcP1474k2WXmVWmcStXrgdsY8WGCOLSbGj01AgGvzMVyxnT+PWi8ipvUB6RnLlrX6a8NwCrfzaw9PNzxGWUo2qNStwoKLuB3wbTUinRy3R1x6A8hfRRYde2P10rHmPJzvDshlWJzKoqdB0/haGO//LT5wsJTLDEtdNIxk56m/RpM9kaqTy/Cokkb0gCDwQBPXXnnsqt4eLWWbzjZ4FF4+f4YHhV9sz9Ft9YDTdib+Zx9mjRWjahZ5ca7NuYU8dz5czg5Jr3mPK7WZYBqG44hPdHOrNv/gJ8onXfbC1piZdzDS5NjC/fzd1ORJ7PufZWPFn2Z9alIXzbl8zfHQ2Wdri1G8QL496j4o2JLDomDNesMMXJkxONLqYi0zJO5jsxyv8VJHDHUFRZU6vDUIb1a4uHc0VIiSDQZx3LN54gXrTlKtsnmLbwFZre9vaM/oH1o3XRpeO/6FU+25N8p8CZ2dD4mUk826sp1SyTCdq9lAWrjnFVl/sqG7x7tsfm7Cp++vMU8eJexKqfafTYNHp0rcv2n4OldV8wlx6S35oIP35eIZQxc2HAk3q8cdobxIaFEpurrwrHJ0dR58ZR5v2dlF2+NOFsnfNpPiIh4eXwWDSWls2c2XAxUrFX2qA8lKdlv6dxObOMiQv9chu5kPPGZ4jBtJToZcK6Y1Cegiqa16ZXXy+u7nqfv1Ny8k6BzNrynrRqbMmZZavwPZ+dh3EbV7LTexbdOtfmz9Uhsr4XZC1/l2ECuulVi5hceTWvzvYlqyqYVaPfx1/S5fQHTFxzoXB51ld3KEE8JaYiRmSuRhJ2VTjqHK6j0dqQcDmM0EJOmUyCj53EoWsPGm37iZOpeRPUCqPyEmE5jbNFlWsinjQSL4cSGp7XuZNtUmjTE4kSbXlokf1ALRkpMURG6trrSMIvQf3Hp9OmZV3UxwJzRpmKk+eObMWlpUzmEoN9ZF7MmaOowqnrW8wYWZfLv89n2lsTmP6dH3SewMS+rsIBLWz7JB8+HTaYwc9/xM6ENE7+OIYhg8XvwcOYlddIFGHN3XvRvfxBFs18l0/WhOD41Gie9bLMhqp2pX4dNdHnz5N421ZIv8C5C5lUrVsPu4L+6kcmK6SihQioa9O1W32uHtjDyZuFnt65YWWNtSqdhKspJZwKUUTcIn3PhlYEB6XTbeLnLFzyE4vnzWRc7wb3Zg5uQb3uW91RYdO6H93s/fn9r9DCH8K8+ArKbGaGmajTGRm5EwxEY5JBeoYZVevUvjcci8heeVsSuPsEjKg7d18YAylouRmwg7232tHL27bQ0LGBl0v+WF2B6q3a4WmrIvVWaj4P532Rp+SaPLRvZpv/and69vfkyua3WbkvOjujYrazcltr5nVvh9uWMIQdp/jSJh5k3ZrDhOjeubKFg70+omldR8wCItBY2GBbHpITr2H3+AQ+ftEJ31kfci5ZDOZVt8VGmK46D6a8JAHrJt3p7HyJv3yDhd+6iEtlS4vBfah3ZRezjubxahcR3KjbFnbY25jj3udZMrb8zJz1CVRo1JeXR07ltVtTmO0Ta1rDNK9w+vS6X3VHXYuefVuQtHsmR5L0eIJvy61P5utBnAnV8ky3Pnj4b+BssgXV2/WnU03hiIm0yTIUczuMRmWODCwJPAAElNadsqJKZig+O0P5vFdnqh/8o8RSqV0G8NnaAXne13Bl6/u89XNQTkdTjduQOawZLIKoVFmdyfSYI/zwV4ERRQXyGE6rxGrIF3MIZBmKKls3alexoMHIBawfmZ+N9noMtjq/oxHGmyYmipjb3mgxnHj9hhZL68KTYDNuJhIfZ0FyWjEfH5lVjyYBYXS07tGG8mfXsK/QEEkOErGYosHAiYzzusTyj9dyNmsWtAkvlW4+jvCIBW1m0dYT2cNMET/xW5OFjO3Qisp7tmdNnTD5pUCve1d3xGKeVv3p4XCSVTv+u7PwqKDSRcmsieTPhT9S7fURzPihP9rMTK4F7WDnoVieqaVRPE2gYHLytyRQ9gkorDtlShEtcQd2cHzgCHp47ORICWUrPG9QS3rSlTxmhBhw3jGXr3fHYuXcnH7PeHDux4X4Zc13zHsZlsdwWiVUQr6WSyDbo6gb7tWm4PvZWL4/UaTvRjE2rabwByB3RDk9mSThPHSyq8i1v5Yz45gu2nK0txFuxpQkkguWE8WpyoAPEwEz5070aKrh+LeHs+e2FlROVZGGg95hUpcU1s36Gp/LeYY2C4Yt6e/0FFJuakiKikL0dbIv7S1iY1NQudhldaBM7v0uTq/7UXfUNejWvxXXfT/h0J2Z6PmJFiezCJke6ceiqftZVsmeimY3SEw2o92knmgTrlKcg7Kk2SbfkwTuLoGCvUPxdRNesUKXwbqjMJ5CEd/lGzdOsGPfc7zTy5vTCSVLq7h5g9kx6gzHKMLDxShjeBiLzF7nyzeHEzp1qZhmVICLAXkMp1UyHeRbdwhkzVHUJopJp1fL0cCzNoV2JilISyxn12iEn0Wtm7lYgiszjJD/MnF2r4+YkpB9WdShgZi3GHfhghyGKgHSh+8VC+p3e4LaSYfxOX6t8PCuWNTRZNh7TOqUwKqP57ErPK1IBOoK9jg4VKWSVZFBin6QeYn/wjKxdXKiXO53wJoqVSuJObuJhTo1pUpLJ4UhvYysO6WWR/hTK7ToSy/nM2z9M0j/8L8hmXPpakhNiSc+6SaaKm3p0NiMi6fPZa9kLzoH5BNJoIwREKt7U0V7Y2lFzqx7MYfCjsqFJtcbqjtK47kf6mdwYdcuIpr0pJOTibda1quOlpR/f8cnrTPDe9fKWhOR/7rX8hRMX/7OLgWZwez4/RSVeo7ntT7NcXNywNmtoVidPIIJg73E+qw8lyaGKzFQq7k3tcTX18LCArWezlSRaLXJHP3rEMkNn+GlJxvjUq02bYYNp1PFEHbu0bNirMiI5IMHjoC6Ik6ubri5umBvqUJdyRlXNzdcq9vdaXR1SpVvRveODkT5+XAm38o78UwYJk1HTmfSExr2rNzCRUsX3EQcbm6u1KxiXWACtpoaT03jm2+/4kUvPV0gQ/JoEzjqc4y05oP5Xw9RVh2r4d55BM8013DmwL8Fhp1LmZYSvYyqO6WUR5cPZtV5on8bUv02s1/fGLsSmUU06rpdGdTDG0/3ejR8rDfj3hlB46Q9/OYbU7gT8MAVainwo0VAQ8SFUDJqe9PGRZiKKitqdO1NG/sCH0FDdUdMulAUj0ngqrCq7JLd1jpWEPMBLbGv7prVZjpW0G8IamP3scPfkRZN7QvsvahMIJWY311N19Zntc3Zf64u9lgVZSuITrnP9jM4PTmY9gVZiiSLk8fotJSpIEPlIZBjA2qI9pnLh6mDGNpnDDOfs0WdmkRM2FmO7YjNP49IG4ffmvU0fLk/n/wwCkt1BgEFt8cpFrGW6yeW8fmSkbw0YBJfDDfnWqQ/W+cu5U+5p1qx5B70h6qKrXl5Vp4tlmr8j8+8xfTX8A28O0W3gapOQxWV2/bAu1wI6/fqWWFrVoMWrWtRTjRw/SbOol8uFC0Juz5h/I8ni55HVwCgYXm0JB3+gdkVRzCyz9t8PsqajKuhHP/lS1YYuZDFYFoo0ct0dcegPCIvyjV9middgtg4/xx6fbZK80JTjjrdB/FUNVss0uIJDdjCnNWbjdqw/EEv+1L+h4WA8H4dXs0yz9d5/tPF9E28QshhPw6FNqN5HhUN1h3RRVISj2momVH76Wn5Ntx+cvLnPCnGCHI33C6YkDhY4PgOP2LaPo1jwWcKfps5duGN2V3yhdTEbOODN1egf3cxLVcPbefwoCkM7OvB0TUFEilGnmLTMmJthQK1HtkgOvu+4ESJRxaGVFwSkARyCJg50/uDL+h16Qsm/XSKgo5dyUkSkASKICDrThFg5O0HlcB9OJnlQUUl5ZYEHh0Cqgp2pAauZcne09JIfHSyXWpqAgKy7pgAooyiTBGQHsUylR1SGElAEpAEJAFJQBKQBMoOAf0zWcuOfFISSUASkAQkAUlAEpAEJIH7REAaivcJvExWEpAEJAFJQBKQBCSBsk5AGoplPYekfJKAJCAJSAKSgCQgCdwnAtJQvE/gZbKSgCQgCUgCkoAkIAmUdQImNhTNafrKEla924VKRW2sWdaJSPkkAUlAEpAEJAFJQBKQBLIIGL89jrknL383lWq/vcYnuxJLtAmjysGboc91p0m9Org6VeTmnlmMXRygeKNkmXcPJgGD+W7RhreWv03bQoeoaEk9tpBXv/DjGhWo02kA/bq2pEFNB2zMU4m7eAKfX1ez9WRC/s3hDWAyKE/W+yoq1e/O0CE9eczdmX36PG4AACAASURBVApi49eY/3xZPmedURtGG0xLpVQva1y7jODFAW2pV0XNtYhAdq1eyqbAu6F7CdKyqM+wL97H68B7TNtwiUyFeqlsGtJn5PP0aFGbKlbpJF4KYPeaFWw2Mk8NZLl8LAncHwIF68W9lMKiJa/9OIWO5YX3RhzBm5lxg4SIsxz+Yy2/7g/nVpYs5jQZ/R3Tu9sXON0KMs4u442Z24mzbM/EpW/S2lwc45uRyrWrkQT7+7Fl4y7OJuTsbJ3ThrfJOMaiCV/gm3U+vBqPF75hhtc+3ss6WMFQWrup+8ZS3m5vVUiWbGyZhP06lam/hiH30743Bcl4Q9EEcqmsymGeFMT+DceIGPACLUwQp4yi7BMwmO8ZgayaNoVNebzRqoqtGPVOH64d8c8+F9isMo1buXI9YBsrNkQQl2ZDo6dGMPidqVjOmMavF5U3HQbl0TWfrn2Z8t4ArP7ZwNLPzxGXUY6qNSpxw0jcBtNSKdFLd37sKN4Z05TQVXOZevwGNXu9wqsTJ5A67UP+iNQolsqgPKKJNj4tFXZt+9O14jGW7AzPbsSV6KWqQtfxUxjq+C8/fb6QwARLXDuNZOykt0mfNpOt8sQmxfkqA5ZFAnrqxT0XU0P4ti+ZvztanFNth1u7Qbww7j0q3pjIomPXcx0+mhhfvpu7nYg8TYn2VjxZ9l7WlcmFzbNYeOgmdi6N6NBvCNM/qs286Yv4N+l2IC1ayyb07FKDfRtz2gE9+hadVgYn17zHlN/NsgxFdcMhvD/SmX3zF+ATrRNMnJOdeFkaiXqY3q1bdwxFlTW1OgxlWL+2eDhXhJQIAn3WsXzjCeLFt1dl+wTTFuY5fm30D6wfrRMrHf+CR/iZ2dD4mUk826sp1SyTCdq9lAWrjnE1pxxpIvz4eYV41cyFAU/Kg2HuVuaWtXgN5rv2BrFhocTmCq7C8clR1LlxlHl/J2U3Zppwts75NJ9qIeHl8Fg0lpbNnNlwMVKxV9GgPJSnZb+ncTmzjIkL/XIbyxD9Z1AVi9tgWkr0Emcre/dsj83ZVfz056mss6YjVv1Mo8em0aNrXbb/HKy48TQoT0nSMq9Nr75eXN31Pn+n3K7shvNLW96TVo0tObNsFb7ns/M5buNKdnrPolvn2vy5OkSxXsVmgnwoCZSagG561SImV17Nq7N9ySrmZtXo9/GXdDn9ARPXXChcVvXVC+HBMzqeUsmuJSMlhshIXfsYSfglqP/4dNq0rIv6WGDuaJ42PZEo0QZnH6eqL0FhpCVdISIslvCwEE6dTaHSvDE812s7J9bfPnI1k+BjJ3Ho2oNG237iZBHHOhWX1o3YS4gksi6LKtfQaNNIvCzkClfeGdYnvbxXMgI5cxRVOHV9ixkj63L59/lMe2sC07/zg84TmNjXVTiOhQ2f5MOnwwYz+PmP2JmQxskfxzBksPg9eBiz9iTnG4I2d+9F9/IHWTTzXT5ZE4LjU6N51kscoC4vScAYAuradO1Wn6sH9nDyZjEvWlljrUon4WpKiaZCFBmzSN+zoRXBQel0m/g5C5f8xOJ5MxnXu8G9mYNbUC+1K/XrqIk+f57E2/2r9Aucu5BJ1br1sDPlvGCj01Jh07of3ez9+f0vPWd054VcUC8zM8yE7BkZGXdCaTNIzzCjap3a94Z1kYVAPpAESkPAiHpRmmSMeVddgeqt2uFpqyL1Vmqp2kxt4gmOhWio5tmYqrntj5abATvYe6sdvbxtixg+NkZgGfZ+E8j2KKrd6dnfkyub32blvujsghOznZXbWjOvezvctoQhvkWKL23iQdatOUyI7p0rWzjY6yOa1nXELCBCsbdHcWIy4ENLwLpJdzo7X+Iv32Dhty7iUtnSYnAf6l3Zxayj+TssRbyh/LaFHfY25rj3eZaMLT8zZ30CFRr15eWRU3nt1hRm+8SWqpEtVhB9elnYYFsekhOvYff4BD5+0QnfWR9yLlkMhFe3xUZ0+3Tef5NcxqalrkXPvi1I2j2TI7lDUHok0afX9SDOhGp5plsfPPw3cDbZgurt+tOppnDWRNpkGYq5hrGeKOUtSaDMElBaL+66AmrchsxhzWCRkEqV1TFLjznCD3/lH4VQuwzgs7UD8kij4crW93nr56DCnlJdKDFnO0E4jlQeVbET7Y8Y2M6+MkPx2RnK5706U/3gH3q1MzotvbHIm/eCQJahqLJ1o3YVCxqMXMD6kfmT1V6PwVbndzTiA6SJiSLmtodYDCdev6HF0rqoian3Qk2ZxgNHQBgUrXu0ofzZNewrau6dWCjRYOBExnldYvnHazmbPSvbdKqqdHNkhLcraDOLtp7IHmaK+InfmixkbIdWVN6zPWv41+SXAr0ybiYSH2dBctrdECC/RobTEgt+WvWnh8NJVu34r+hFaUXppYnkz4U/Uu31Ecz4oT/azEyuBe1g56FYnqmlkZ1LkxcwGeG9IaCwXtwTYcSA8465fL07Fivn5vR7xoNzPy7EL2vO352r8LxBLeliqNng57/QaIaWuAM7OD5wBD08dnJEj44lTktPXPLW3SWQ7VHUZbI2Bd/PxvL9iSJ9N4ol0WoKN+6FypHi2GTAR5GAmXMnejTVcPzbw7lzW/NxUFWk4aB3mNQlhXWzvsbncp5hS1MBS08h5aaGpKgoRF8n+9LeIjY2BZWLXVYHymQevNsyF6dXejJJwnnoZFeRa38tZ8Yx3UvlaG8j3IwpSSSbcvqOMWmpa9Ctfyuu+37CoTuz3vPnQnF6iZDpkX4smrqfZZXsqWh2g8RkM9pN6ok24SrFOShNldUyHklAOYGCnTPxdRNeukKXwXqhMJ5CEZfkhs7giyI8XIzqhYexyOx1vnxzOKFTl4ppPXfkKG7eoN5UVeWxt7MU9TSeRF37k3fDvRsn2LHvOd7p5c3phMJvG51W4SjknXtEICtbtYlikujVcjTwrE2hnUkKCiKW12s0ws+i1s1clJckcDcIWFC/2xPUTjqMz/FrhYd3xUKLJsPeY1KnBFZ9PI9d4WlFCqGuYI+DQ1UqWRUZpOgHmZf4LywTWycnyuV+B6ypUrWSmLObWMgwK1VaOikM6ZUZRsh/mTi710dML8q+LOrQQMxbjLtwodDwbKnkUZyWbnV0X3o5n2Hrn0H6pwgY0is3BzSkpsQTn3QTTZW2dGhsxsXT57JXuxedS/KJJHAPCYjFHKmivbG0InfWvZkdlQtNEDZUL5TGczdU05Ly7+/4pHVmeO9aWWsQSnqp7JrTsr4ZUadOE1fQ7hVjCxd27SKiSU86OeW1IEuamnzvfhHIzr3MYHb8fopKPcfzWp/muDk54OzWUKywHMGEwV75N1vUxHAlBmo196aW+PpaWFig1tOZKlYhdUWcXN1wc3XB3lKFupIzrm5uuFa3u1P5io1APnwgCSjN9/LN6N7RgSg/H84UXDEnjI6mI6cz6QkNe1Zu4aKlC26i7Li5uVKzinWBidNqajw1jW++/YoXvfR0gQzJo03gqM8x0poP5n89GuPiWA33ziN4prmGMwf+LTDsXMq0lOilTeboX4dIbvgMLz0p5KlWmzbDhtOpYgg79xRcbVlKeZSmZVadJ/q3IdVvM/v1jcMr0UsUZnXdrgzq4Y2nez0aPtabce+MoHHSHn7zjSncUXggC78U+uEgoCHiQigZtb1p4yJMRZUVNbr2po19gY+goXohJlQoiuduQROdYJ/tZ3B6cjDt88iuEvOyq+m+zVltavafq4s9VrnqqbC0daZGrbo0bvs0Y6e+gFfKPtbt0L+ATRu7jx3+jrRoap/P2ahTy3Bad0t5Ga+xBHK2x9EQ7TOXD1MHMbTPGGY+Z4s6NYmYsLMc2xGbf46QNg6/Netp+HJ/PvlhFJbqDAIKbo9jQApVxda8PCvPVjs1/sdn3mIaZPgG3s3akNNABPLxA0lAWb6rqNy2B97lQli/V0/jY1aDFq1rUa6CGf0mzqJfLgktCbs+YfyPJ4ueI1eAmmF5tCQd/oHZFUcwss/bfD7KmoyroRz/5UtWGLmQxWBaKNFLy/UTy/h8yUheGjCJL4abcy3Sn61zl/KnkXsNGpQnU1la5Zo+zZMuQWycfw69fl2l+aUpR53ug3iqmi0WafGEBmxhzurNRm1q/kBWCin0A0ZAeOMOr2aZ5+s8/+li+iZeIeSwH4dCm9E8jyYG64Xo/iiJ5+7B0XL10HYOD5rCwL4eHF0RnJWUmWMX3pjdJV+ymphtfPDmCrJ3BVNTd8B05vRNExtuXyb4+C98unEnZ4qaHyIWuxzf4UeMMCodCyhTbFrSBrh7WV+CmHX9hEIO4xLEI1+RBCSBR42AmTO9P/iCXpe+YNJPpyjo/H3UcEh9JYEsArJeyILwkBG4LyezPGQMpTqSwCNJQFXBjtTAtSzZe1oaiY9kCZBK6yMg64U+KvLeg0xAehQf5NyTsksCkoAkIAlIApKAJHAXCcilSHcRroxaEpAEJAFJQBKQBCSBB5mANBQf5NyTsksCkoAkIAlIApKAJHAXCUhD8S7ClVFLApKAJCAJSAKSgCTwIBOQhuKDnHtSdklAEpAEJAFJQBKQBO4igf+3d+ZxVZVbA342h1kmBxIFmRTJVHC6oteKHHIOtNQ0h5vmLbP6biWfU+NNpRvX0tst01IzRdNrlsPNVJwoh7QPUXFWFAGnFJDBARDOtw+ITAfOIQEPsPbvxx/s/e71rvWs/e69znqnSg4UzfF/aSHh07pjX2L90Sq0QUQLASEgBISAEBACQkAIVAGBii+PY96G8Z9Ppcl3rzIz4nrFF2FU6uEdOJjgHh3xbeaMg3km185Fs231cjbEpBRf3LsKDBaRD46A4tyZ4SOepG0Lbzwa23FreygTFhwqXCDbogtvLHmTrqU2UdGSGTWPl8MiyaDynh+D+uShUrD3eZLhz/bhTy1dqKcuIPv72R0smb2yQotBG1eXNR7dRzN2cFdaNNSQkXiYiOWL+eFwYbswTo4hH1viM2Aizz3hg7tLA2yVmySdP0Lk9+H8EHW1yILlhvUpVZOFDyPD3sVv11tMXxNPjjHt3Ri/y2qvpVDLiRpEoGS7qE7VrboxafHfCDBXt9+9k6kulH2B0wcjWf99BMdTdCtbKzj0mMYXE/zJPfgl//PhNvK2bLdozQv/eoc+9a+w7p03WR5rS/ep83m5fakXNORe4b/vvc7Sk7JSdnW6trrqqnigeL+aKQ1o3cmDG4d+5Js1iVzLcuCR/qMZNmUqlu9MZ/U5edDuF7Gp3q9Y2WCeeopf1kSROPgvdCip6J3DhE+fzA9FstGKXSeenzKQjF8P5u/5a1Z5z49BfVT9zD2CmPzWYKx+W8Pij05w7Y4NjdzsuVlSdwP/G65Ltzfs80x50Z+48E+YeuAmzfq+xMuTXidz+t/574XcvBoMyzGgSL4UzLIuc+DHPfxwJYUbufY0f+JZRr45DYv3J7Pi9B1dTUbpU7w2Baeug+hhF8XCLQnktWRj2rsxfjfGLCkjBEySgJ52Ue165hC7NpR5e27h5PoIjwU/y9sfeDHn7fn8X+pdZTKTSGvWjS6NtvPTVS1WbR6lgzYpP2jUFVF/JP+2eDrnCje+V9u3E53HvsEgh2iiE/PfUdVumlRY5QQKA0XFGvfHhjMyuCsPu9hBeiKHt61kyffRJKlvfMWxJ9PnFdl2769fsuqvOv2yOVhyCz8zB1o/HcKQvv40sUzj1NbF/Ds8imTdr5TcBDbMnlXMsDMJNjw8fwId27mw5twFySpWudsfTAW5iZEs+0at28yVwf30pIi0N7l6Po6r99RTeKjf83jf3Mec/an52etKfH4M6oMtHYOfwvXY10yaF3nvhXkmfy+rCkE0WJe6J3LnPt1wOB7Ooo1H8vaRTgxfxiN/mk7vHs35adnpvMDLoByjtMrkZMTKu1ty5d8QG2fBI93+RuuHG2F2+jK5RupTrDpzL/oG+ZEc8S770+/61xh/GeN3o+ySQkKgqgnohlfN538bLOflf+wg7zE3a0LwjH/S/eh7TFpRcs919bq+dsEfkHNfpmnJSr1M4vmrJJw/w5Hj6djPeZERfX8ietX5fMlZJ9h9wJs/d3Vh8/pU/B/1I3HPbzj2L9icMJeMK+fVXp2CQ6Hh40Po5XWFDTOWE3NDzzv9vnSWm02FwN0xigqNe7zBO2Oac3HdXKa/8Tpvfx4JT7zOpCAPNKq22tRtzBo5jGHPfcCWlCxivnqRZ4ep/w8bSej2tGJd0OYt+/Kk7W7mvz+NmSvO8FD/vzLET91AvazDyhprJZuU5PSKd2WXJVPO13wCGi969PIhedd2Ym6VY05VPT9q/W1aWXH6VDa9Jn3EvIWLWDDnfSYO8K38MbgaD3y8NVw5eZLrBe/b7FhOxObQqHkLnKpwzK9i1QDfnoE8rEnidOzdbu4K66N2XwUE06v+QdZt1rNHd1H3GfKXsX4v55GQS0LANAhUoF1Uo8La69FEncmlSZvWNLr3bsnm9K7fsO36Z9wc2/Pow2fZraYbywr/zBr35MW/tOXKms/57pRs4FmN7qv2qvIDRU1L+gxqw+W1n7H05+Nc+F391RHzE0t/jMP98T/jqYsUK3Bor+9m5Yq9nLmQyPGt69l9We3aav4QemfOKI50GDaQFpcjWL+veMBZgSqlaC0kYN32SZ5wiWfnjtNq3rqMoyqfHwsn6juY03LgEDxPrWT232fw2aZkfJ+byqs9nNXO2Uo8LBxwtIW06xk4Pfo68xZ9yNDmWtLS1E5ue0cc9Dae+6tf4zGUsOUrWbn0Cz4Y2oB9n35A+LG7L/yK6qNxp09QB1K3ruXX1LI+Laq+RvjLKL/fn+lytxCoHgLGtovq0aawFrUbOUVN+ChOjXAq8m65c3Y3+zV/pv+QQJqf3EV0RhltWeNK3wkjaXF2BfM2nC/7/Vzddkl9VUIgr+tZcfTEq6EFvmP+zaoxxevR3vgdR92DVIGhg7m/X+L3guEKarfSjZtaLK2tSn9Y1YHuvs9MYqJfPEtmfMvx21ViowitiQTUgCKgdxdsj6/g57vj80qZUdXPj2KmPrNmmJ1ay/wN0fndTImL+K7tPCY81okG23/K6yKu7OPOreskXbMgLasKhBdRNufiFj6Zug8bW2daPv4MQ8eO5+LF2WxOKB6WG9ZHnfDTaRC9nWMI33S2yGSYEmSM8Zcxfq9s4CJPCFQJASPbRZXUbaTQkr92c+LZvTebsGc9+SXskDoWu4keQRZ4PDWBZ5seYeH0LVyqQGygR5icqgEE8sco6h4WbTo7PpzAF9Fl5m6MNkebm1tqnGHJ5xHFjlZDpxDSPZ2Vof9i20XdAHo5hEA+ATOXQHr753Lgs735Y1tLgqmO5yc7nfRbuaReuoT6Wyf/0N7m6tV0FFenvB9QuvG7lXJkp5GqJg8bO9mRsXkJ70TppNrQzUFNM6anklYV48SzU7mcoBvJHs+50xex9vyYYeoYw52fR5FZEX00bvQa1IkbO2ayJ2+6pJ7DSH8Z9Lse0XJKCFQvgZLPuPp1U0p94cBguzBSTlUYp9hS38kSbUoS14u9W3K5sPMbvrxpy+mY22gfKl25ZfNBTBis9kB8NptdVfFLuXSVcuYBE8hLOmuvxxGXbINvGy/0THwvrqJWnWKfq+ZZNBXsjy4qRR0o33bkW4QEphA+Yw4RCVkPGINUb1oELPDp1ROv1L1sO5BReoxMBZ4fTb36ODs3wt7qD1io/ro+ez4Hx8aNKZzoZ03DRvbqmN3rpYK3+6vrPGfO5uDS0gfHgm+OhTe+6rjFa7GxheMWK2BGxfRRUMwUrGxt88Ykk2OsPrrZ0UH0dTnGho2n9HdBGe0vA36vgO1SVAhUDQF1Ukim+r2ytOLeqHszJxqUGkRsqF0YK6dqrFCc2tPRx4xLR45yrUS8qk05zs7NUVzQlzOy9mXoywOx3jmfb8oZv1g1WovUB0Ugf3RCzmk2rTuCfZ9XeHVgezwbO+Pi2UqdhTma14f5qfOzihy5v3P5d3Bv3xl39etrYWGBRs+PqTINUj8a/mPeJqRnLtuXruecpSuenp7qnwfNGlqX7p4uU5BcqHEENHY09lB97eFKfUsFjb0LHqrvPZo6Fb50dUbZtuPJx525FLmNgiFz92yt0POjwa3/dD797GPG+un5CWRIH20K+7ZFkdV+GC/0bo3rQ01o+cRonm6fy7Fd/1ei2/l+60pj3+Y9pLV6mnH91LqaeNFl5CgC7c6wZXuRmZSGdL4Hqhx9LP0Y+toYBjzWkTYtm9PikT/Rb/xrBHvd5ND+o+TNG9IaqY9ZU3oO6kJm5Fp+0ZddqIi/yvN7jXvYReHaSSCXxNg47nh1pourGioqVrj1GECX+iU+gobahdrnZpScSoOoYOnogpt7c1p3fYoJU/+CX/rPrNxkYOJZ0frVLGSbES/Tv95BNu5Jx1n3Ls/7dud/vx+qVwUDqSvNfhF0PwTuxoC5XNn2CX/PHMrwgS/y/ghHNJmp/H7+OFGbrhbvRtZeI3LFKlqNH8TML5/HUnOHQyWXxylPIzM3OgS4Y6M+VMGTQgm+V1ZLSsRMXvkqpuwxTuXJlWsmT0CxC2B8aJElltxe4MPOavIqYQ3TJq8iLn/hPRp07U1nmzOs2qnnJVaJz49hfbSk7v2Sf9iNZszAN/noeWvuJMdx4D//5JttV0tnOsvxgDF13Yj+mo8WjmHc4BDCRpmTceEgGz5ZzMYLhf3bhuWUo0TBpZxUkrPUAG9IN4Y0cMDa7DYpiSfYOX8Bq39OvmuXFmP0sfF/in6up/h+7gn09gsY7S+lfL8bYZYUEQJVT0BL+t7lfN3mNZ6btYCg65c5szeSPXHtKFhERqeDwXahtjJj5FSePRqaD36b2UFZ6oLbFzl94D/M+n4Lx/ImnhmZ6VGXNWunLmFn0bApf53RtYRq2UR9/iJhkTcq9F6sPPtEUlUS0D0hJQdKVGV9IlsICIHaQsDMhQHvhdE3PoyQRUeQBTJqi2PFjvsiIO3ivvDJzaZHoPp3ZjE9BqKREBACf4CAUs+JzMPfsnDnUQkS/wA/uaV2EpB2UTv9WpetkoxiXfa+2C4EhIAQEAJCQAgIgXIIyOjTcuDIJSEgBISAEBACQkAI1GUCEijWZe+L7UJACAgBISAEhIAQKIeABIrlwJFLQkAICAEhIASEgBCoywQkUKzL3hfbhYAQEAJCQAgIASFQDoH8Wc+a5oyYPZPBrro9GXJJ2jSDVxcfrcj2zuVUIZeEgBAQAkJACAgBISAEaiKB4rOeFUd6Tf+cZy59KIFiTfSmieusOHdm+IgnadvCG4/GdtzaHsqEBYcKF1hX6uEdOJjgHh3xbeaMg3km185Fs231cjbEpOQv/G7RhTeWvEnXUhutaMmMmsfLYZFkGL0yqDUe3UczdnBXWjTUkJF4mIjli/nh8N26jOZZOXIM8tGnj4UPI8PexW/XW0xfE5//487ancARownq6ksTezNuJ53n0PZVLFt3mOTK2ptany5yTggIAf0E9LVT/SXlrBAwOQKyjqLJuaT2KqRY2WCeeopf1kSROPgvdChpqtKA1p08uHHoR75Zk8i1LAce6T+aYVOmYvnOdFafU6OcO4cJnz6ZH4psJqDYdeL5KQPJ+PUgN4wOEnV7sT7PlBf9iQv/hKkHbtKs70u8POl1Mqf/nf9eyC2pXRn/V5Yc3W5gBviU0kDBqesgethFsXBLwt0eAEtaj5jMhG6XWf3vaUTGZ+HU5mkmTgjh1RshzNj8u6ywX4qjnBACVUlAXzutyvpEthCoXAIVG6OoZhxbB/+N0M+XsHzFMr6a8xbPP+qGVeXqJNJqKYHcxEiWfbOan36J4dJtPRFdbgIbZs/iyzVb2XvoBKeP72f9gu84jDsd1a2j8h5W7U2uno8jLq7g7zw3mrXB++Y+tu1PNT4IUvcg7tynGw7H17Jo4xESL51lb/gyIm/40LtHc3SDMIw6KkuOWplBPiUVMveib5AfyRHr2J9+l6cabHs3b0BWzBY2HLpAUspVYndvZE+iOR5eTY23q2Rd8r8QEAIqAXP8X1pI+LTu2Bf8WDVrQvCscOY+V8Z7Q187/SNyhL8QeEAEKhAomtGk7+tMfropsStm8ObfpvHvHXfoMnEaY/xtjd0t8gGZKdXWWAJW1lgr2aQkp+sPAjVe9OjlQ/Ku7cTcqoCVGg98vDVcOXmS6wUxa3YsJ2JzaNS8BU5Gbn9KZcmpgOr5RRUcAoLpVf8g6zYX2RNbm8SJY5fQ+AQQ4GKltksNDi270q7xdQ5Excq44wpzlhuEwP0QKKOd3o9IuVcIVDMB4wNFMze69WjJzV/CWbY7litXEzm8YTHrTjvxaA9/rKtZcamuDhBQM9gdhg2kxeUI1u9L0xsoWrd9kidc4tm54zTZFUFi4YCjLaRdz8Dp0deZt+hDhjbXkpZ2E+wdcTC2ZVSWnIroriurcadPUAdSt67l19Si2dlsTq8KZc5+F8bOWUL48nC+fPsxUsJD+fK3MoLtitYt5YWAEDCOQJnt1LjbpZQQMAUCxn4O1Q+TC66N4UJcQuEHWZtM/Pk0zJs0pZHxkkzBbtHB1AmoE1t8n5nERL94lnz8Lcdv61FYDSQDenfB9vh2fjZ6TGFpOXduXSfpWjJpWXq6w0sXL/NMZckps4J7FxTsOw2it3MM6zedLZwMlHddg+sT4xgXcJNNc99l6uRpzFpyjKYjp/Bil/qS+TcMV0oIgUoiUF47raQqRIwQqAYCMpmlGiBLFRUkoNjRaugUQrqnszL0X2y7eEevADOXQHr753Lgs70kVzTGy04jVU0eNnayI2PzEt6J0lVhQzcHNc2YnkqasXNZKkuOXgvLOKlxo9egTtzYMZM9KSUMt/QjaEQ7UjeEsGbfpbyZ4gkXFrOq1Re8EfQ4P+xfx0VjbSujejktBOo2gZIvG3WciqJnrEp57TQPoJFy6jZs/O4hBAAADutJREFUsd4ECJTIA94hW/0mW1pZls485F7h4hVw9WzGvZVJ1IHz7u4O3Ll8iST5+JiAO2uBCurkkLYj3yIkMIXwGXOISMgqwygLfHr1xCt1L9sOZJR65RbcpKlXH2fnRtiXnHGVc54zZ3NwaemDY8E73sIbX3Xc4rXY2MJxi3cFVbmcMqwsfVo3yzqIvi7H2LDxVOnudnM77G3M0Jb4BuXmalGsbbDS8z0rXYecEQJCQD8BLVmZ6jvJ0grLggJmTjQoNajZQDtV31jGydGvhZwVAtVJoHigqL1FXOxFrP260725M/WdHKlneffLkpPArp1nsH18FKO6edPY2ZW2A8cR7JvKnh2HqMg8guo0UOoyIQIaOxp7eOLp4Up99bnS2Lvg4emJR1On/JeuGiT6j3mbkJ65bF+6nnOWrniq1z09PWjW0Lr4jxfbdjz5uDOXIrdxLLMsGzW49Z/Op599zFi/EgsvatPYt3kPaa2eZly/1rg28aLLyFEE2p1hy/aSkz6qQY7OBEN8dGXMmtJzUBcyI9fyS1LJjIR6/dYJoo9n4t1vDE+191DbaVN81TY7LMCGy9HRJMo6imU9LHJeCBhBIJfE2DjueHWmi6saKipWuPUYQJf6JX6BGWqnaq7fKDlGaCRFhEBVEyjR9ZxL/I9fssLjZYZ/8BnjLe5w5KtXmBlxXf39k8uln+Yy2/J5nhv1Hp84mXHryin2zv8H4dE3yszoVLUBIr/mEFDsAhgf+hL+BTGb2wt82BlyEtYwbfIq4nCjQ4A7NvXMCJ4USvA907SkRMzkla9i7o7HU2jQtTedbc6wameRGb8VQqHlRvTXfLRwDOMGhxA2ypyMCwfZ8MliNl6oSDRVWXLUb44hPqpaNv5P0c/1FN/PPYHeXKv2Kls//QjLkc/S+5WZDFdZ3k6J56jadpd9d7J0BrJCzKSwEKjrBLSk713O121e47lZCwi6fpkzeyPZE9eO9kXQGGyn6hfTGDl1nbbYbxoEdD+D9KQlTEM50UIICIEiBMxcGPBeGH3jwwhZdIQyE6kCTQgIgQdHQNrpg2MvNVcJAZnMUiVYRagQqHwCSj0nMg9/y8KdRyVIrHy8IlEIVAoBaaeVglGEmBABySiakDNEFSEgBISAEBACQkAImBIBWf3QlLwhuggBISAEhIAQEAJCwIQISKBoQs4QVYSAEBACQkAICAEhYEoEJFA0JW+ILkJACAgBISAEhIAQMCECEiiakDNEFSEgBISAEBACQkAImBIBCRRNyRuiixAQAkJACAgBISAETIiALI9jQs6o7aoozp0ZPuJJ2rbwxqOxHbe2hzJhwaG7i2ir1iv18A4cTHCPjvg2c8bBPJNr56LZtno5G2JS8vYtzj+s8eg+mrGDu9KioYaMxMNELF/MD4eLljGGpmnJMchHn0kWPowMexe/XW8xfU08OeoeNz4DJvLcEz64uzTAVrlJ0vkjRH4fzg9RV/NZG81ZX4VyTggIASEgBOoSAY1q7Pt1yWCx9cERMGvQgnZNb3NibzTpbv40ubaL/0ZdKQwA1YVqH30mEKsTO9iy8b9s3HmEDPceDBsSgFn0Do5d160Nr9tDdTx//5/2XP3hU+Z8s5VzToGMeq4TWb/9zKl0Y9ePNzU56u58hviUcp2C06PjmPCnRFbM20J83lYt5jir+7FnndjJ5k0/sTnyEFfrd2HI8ECsY7YRk6yG20ZxLlWZnBACQkAICIE6SkD3ZZU/YVB9z4CZq3bwP1ZoF77kr1VT2uXWq9gFaqeEf6v9x2BXrTpOQoviqO0+bZk2/N0+2obK3Xst2mhfmLdC++loH636y6dcefeedVOTU1RvY/mYe2uHz16m/ecwr/LttgrQvr50hXbWUy75DPUwKsVZTxl5Txj5bAk749qgcBJO8gzUiGdAxijW0V8HNcZsK2uslWxSktPz95rUeODjreHKyZPkJRh1R3YsJ2JzaNS8BU66JeSNOUxNjjE6Fyuj4BAQTK/6B1m3uez9rhWrBvj2DORhTRKnY8vpmi/JucL6yA1CQAgIASFQGwlIoFgbvVpbbFIc6TBsIC0uR7B+X1p+oGjhgKMtpF3PULtdX2feog8Z2lxLWtpNsHfEwdgn2tTkVNRnGnf6BHUgdetafk0tiJgLhWg8hhK2fCUrl37BB0MbsO/TDwg/Vsbu0Po4V1QfKS8EhIAQEAK1koBMZqmVbq0FRqkTLnyfmcREv3iWzPiW47dL23Tn1nWSrlmQllU6UCpduuwzpianbE0LrijYdxpEb+cYwjedLZwMVOTGnItb+GTqPmxsnWn5+DMMHTueixdnszkhu7h4Izgb1kdKCAEhIASEQG0lIIFibfVsTbZLsaPV0CmEdE9nZei/2HbxTqE12WmkqsnDxk52ZGxewjtRuks2dHNQ04zpqaQVTo0un4CpySlf2+JXNW70GtSJGztmsieljCA5O5XLCanqffGcO30Ra8+PGRbkx87Po7iXVyyPc0X0kbJCQAgIASFQawkY21FXawGIYSZGQHGg7ci3CAlMIXzGHCIS8qbyFh455zlzNgeXlj44FoxHtPDGVx23eC02tnDc4t07NPXq4+zcCHurEnaamhyj3aCbrR1EX5djbNh4ihL5wTKkKChmCla2tuiWOcg7DHEuQ5KcFgJCQAgIgbpFQALFuuXvB2utxo7GHp54erhS31JBY++Ch6cnHk2d1NX/1EMNXvzHvE1Iz1y2L13POUtXPNXrnp4eNGtorS6Mox7aNPZt3kNaq6cZ1681rk286DJyFIF2Z9iyPVZdR7DoocGt/3Q+/exjxvpZFLfd1OTotDPER1fGrCk9B3UhM3ItvyTpySZa+jH0tTEMeKwjbVo2p8Ujf6Lf+NcI9rrJof1HuaWTYQzn4rTkPyEgBISAEKijBKTruY46/kGYrdgFMD70JfwLYja3F/iwM+QkrGHa5FXE4UaHAHds6pkRPCmU4HtKakmJmMkrX8Wo4/G03Ij+mo8WjmHc4BDCRpmTceEgGz5ZzMYLxcPE8m00NTlq/GaIj2qejf9T9HM9xfdzT1Ai15pvbk4qyVlqMDmkG0MaOGBtdpuUxBPsnL+A1T8n508IMjOGc/n05KoQEAJCQAjUDQK6JI2etETdMF6sFAI1ioC6UPaA98LoGx9GyKIjhWMNa5QRoqwQEAJCQAjUJAKSUaxJ3hJd6zQBpZ4TmYe/ZeHOoxIk1uknQYwXAkJACFQfAckoVh9rqUkICAEhIASEgBAQAjWKgExmqVHuEmWFgBAQAkJACAgBIVB9BCRQrD7WUpMQEAJCQAgIASEgBGoUAQkUa5S7RFkhIASEgBAQAkJACFQfAQkUq4+11CQEhIAQEAJCQAgIgRpFQALFGuUuUVYICAEhIASEgBAQAtVHQJbHqT7WUlMlEVCcOzN8xJO0beGNR2M7bm0PZcKCQ+pi3OUcFj6MDHsXv11vMX1NfN4OLgblKPXwDhxMcI+O+DZzxsE8k2vnotm2ejkbYlK4t620tTuBI0YT1NWXJvZm3E46z6Htq1i27jDJFVkDvBz15ZIQEAJCQAgIgQdBQDKKD4K61HlfBBQrG8xTT/HLmtXsvnQvXCtHpoJT10H0sIti7ZaEe9v8GZSjNKB1Jw9uHPqRb+bO5L3QBWxL9WXYlKk841Wwa7IlrUdMZkI3hd2fT+O1iW8wa1U87s+E8Gqvh/K3HSxHM7kkBISAEBACQsCUCUhG0ZS9U0t109g44mhjRlZ6ChnZ+o0sr0xuYiTLvlHvM3NlcD8jNhYy96JvkB/JEe+yP72wvEE5uQlsmD2rmIJnEmx4eP4EOrZzYc25C+SqwaR38wZkxSxlw6EL6MxJ2r2RPQMD6e/VFA2/l5/p1G++nBUCQkAICAEhYBIEJKNoEm6oS0pocBv4Np9/MZdx7Qo2fS5pvzFlSt5T1v8KDgHB9Kp/kHWb4+5lE8sqbfC8lTXWSjYpyen5e19qkzhx7BIanwACXKzUDKIGh5Zdadf4OgeiYu+/PoMKSQEhIASEgBAQAlVHQDKKVcdWJJsCAY07fYI6kLr1fX5NNSL7WJ7OiiMdhg2kxeUIQvel3d0kPZvTq0KZY/4mE+cs4WW1J1yjvcb+JaF8+dvdYLI8mXJNCAgBISAEhIAJE5BA0YSdUztVy+H86v9lxOryrDOmTHn3F1xTsO80iN7OMYRvOnt/XcDqxBbfZyYx0S+eJTO+5fjtgjo0uD4xjnEBN9k0911+TczGqVU//jJyCi9mvMu8X1PuBpTG6CtlhIAQEAJCQAiYFgHpejYtf4g2lUlA40avQZ24sWMde1LuI5uo2NFq6FQm98xgZei/2HaxyPxqSz+CRrQjdcti1uw7TcKFOGK2LmbVgXp0C3qcJtLCKtOjIksICAEhIASqmYB8xqoZuFSnds3Wq4+zcyPsrcqmYUyZsu/WXVGo1yGIvi7H2LDxVN4kkz90KA60HfkWIYEphM+YQ0RCVnEx5nbYqxNztCXi0NxcLYq1DVbKH6pVbhICQkAICAEhYBIEJFA0CTfUJSXUiSr9p/PpZx8z1q+cySzlldHY0djDE08PV+pbqtNH7F3w8PTEo6kTlgUozZrSc1AXMiPX8ktSGdlEQ3LUINF/zNuE9Mxl+9L1nLN0xVOtx9PTg2YNrfOXvrl1gujjmXj3G8NT7T1o7NwU38dHMSzAhsvR0STKOop16eEWW4WAEBACtY6AjFGsdS6t/QYpdgGMD30J/4I40+0FPuwMOQlrmDZ5FXFqcGbj/xT9XE/x/dwTlMgB3gNkUA5udAhwx6aeGcGTQgm+d6eWlIiZvPJVDHe0V9n66UdYjnyW3q/MZLha9nZKPEd/msuy707+8Uxm7XejWCgEhIAQEAI1gICuY6yMdEsN0F5UFAL6CJi5MOC9MPrGhxGy6AiZ+srIOSEgBISAEBACQsAgAckoGkQkBWoaAaWeE5mHv2XhzqMSJNY054m+QkAICAEhYFIEJKNoUu4QZYSAEBACQkAICAEhYDoEZDKL6fhCNBECQkAICAEhIASEgEkRkEDRpNwhyggBISAEhIAQEAJCwHQISKBoOr4QTYSAEBACQkAICAEhYFIE/h8Ttbh9IYHnOgAAAABJRU5ErkJggg==;" vertex="1" parent="1">
          <mxGeometry x="790" y="1060" width="650" height="180" as="geometry" />
        </mxCell>
        <mxCell id="XXfVhE3nksT0GZ8cm9VU-28" value="&lt;div&gt;HN: RED-IPS&lt;/div&gt;" style="rounded=1;whiteSpace=wrap;html=1;" vertex="1" parent="1">
          <mxGeometry x="45" y="590" width="120" height="60" as="geometry" />
        </mxCell>
        <mxCell id="XXfVhE3nksT0GZ8cm9VU-29" value="172.16.120.10/29" style="text;whiteSpace=wrap;html=1;rotation=0;" vertex="1" parent="1">
          <mxGeometry x="170.61" y="504.56" width="130" height="70" as="geometry" />
        </mxCell>
        <mxCell id="XXfVhE3nksT0GZ8cm9VU-30" value="127.0.0.1/8" style="text;whiteSpace=wrap;html=1;rotation=35;" vertex="1" parent="1">
          <mxGeometry x="520" y="535" width="90" height="40" as="geometry" />
        </mxCell>
        <mxCell id="XXfVhE3nksT0GZ8cm9VU-31" value="172.16.101.30/27" style="text;whiteSpace=wrap;html=1;rotation=-45;" vertex="1" parent="1">
          <mxGeometry x="500" y="368" width="130" height="40" as="geometry" />
        </mxCell>
        <mxCell id="XXfVhE3nksT0GZ8cm9VU-43" value="ETH0" style="rounded=1;whiteSpace=wrap;html=1;" vertex="1" parent="1">
          <mxGeometry x="133" y="590" width="30" height="15" as="geometry" />
        </mxCell>
        <mxCell id="XXfVhE3nksT0GZ8cm9VU-44" value="ETH1" style="rounded=1;whiteSpace=wrap;html=1;" vertex="1" parent="1">
          <mxGeometry x="45" y="635" width="30" height="15" as="geometry" />
        </mxCell>
        <mxCell id="XXfVhE3nksT0GZ8cm9VU-45" value="" style="endArrow=none;html=1;rounded=0;" edge="1" parent="1">
          <mxGeometry width="50" height="50" relative="1" as="geometry">
            <mxPoint x="50" y="720" as="sourcePoint" />
            <mxPoint x="50" y="650" as="targetPoint" />
          </mxGeometry>
        </mxCell>
        <mxCell id="XXfVhE3nksT0GZ8cm9VU-46" value="&lt;div&gt;RED-POP&lt;/div&gt;&lt;div&gt;&lt;br&gt;&lt;/div&gt;" style="rounded=1;whiteSpace=wrap;html=1;" vertex="1" parent="1">
          <mxGeometry x="-10" y="720" width="120" height="60" as="geometry" />
        </mxCell>
        <mxCell id="XXfVhE3nksT0GZ8cm9VU-47" value="lo" style="rounded=1;whiteSpace=wrap;html=1;" vertex="1" parent="1">
          <mxGeometry x="135" y="635" width="30" height="15" as="geometry" />
        </mxCell>
        <mxCell id="XXfVhE3nksT0GZ8cm9VU-48" value="" style="endArrow=classic;html=1;rounded=0;exitX=1;exitY=1;exitDx=0;exitDy=0;" edge="1" parent="1" source="XXfVhE3nksT0GZ8cm9VU-47">
          <mxGeometry width="50" height="50" relative="1" as="geometry">
            <mxPoint x="170" y="650" as="sourcePoint" />
            <mxPoint x="250" y="710" as="targetPoint" />
          </mxGeometry>
        </mxCell>
        <mxCell id="XXfVhE3nksT0GZ8cm9VU-49" value="127.0.0.1/8" style="text;html=1;align=center;verticalAlign=middle;resizable=0;points=[];autosize=1;strokeColor=none;fillColor=none;rotation=35;" vertex="1" parent="1">
          <mxGeometry x="160" y="648" width="80" height="30" as="geometry" />
        </mxCell>
        <mxCell id="XXfVhE3nksT0GZ8cm9VU-58" value="&lt;span style=&quot;text-wrap-mode: wrap;&quot;&gt;172.16.120.18/29&lt;/span&gt;" style="text;html=1;align=center;verticalAlign=middle;resizable=0;points=[];autosize=1;strokeColor=none;fillColor=none;" vertex="1" parent="1">
          <mxGeometry x="30" y="648" width="120" height="30" as="geometry" />
        </mxCell>
        <mxCell id="XXfVhE3nksT0GZ8cm9VU-60" value="&quot;REDNET&quot;" style="text;html=1;align=center;verticalAlign=middle;resizable=0;points=[];autosize=1;strokeColor=none;fillColor=none;rotation=0;" vertex="1" parent="1">
          <mxGeometry x="-19.998983848622444" y="670.0003810567666" width="80" height="30" as="geometry" />
        </mxCell>
        <mxCell id="XXfVhE3nksT0GZ8cm9VU-63" value="ETH0" style="rounded=1;whiteSpace=wrap;html=1;" vertex="1" parent="1">
          <mxGeometry x="30" y="720" width="30" height="15" as="geometry" />
        </mxCell>
        <mxCell id="XXfVhE3nksT0GZ8cm9VU-64" value="172.16.120.17/29" style="text;whiteSpace=wrap;html=1;" vertex="1" parent="1">
          <mxGeometry x="50" y="695" width="110" height="40" as="geometry" />
        </mxCell>
        <mxCell id="XXfVhE3nksT0GZ8cm9VU-66" value="ETH1" style="rounded=1;whiteSpace=wrap;html=1;" vertex="1" parent="1">
          <mxGeometry x="-10" y="765" width="30" height="15" as="geometry" />
        </mxCell>
        <mxCell id="XXfVhE3nksT0GZ8cm9VU-67" value="" style="endArrow=none;html=1;rounded=0;" edge="1" parent="1">
          <mxGeometry width="50" height="50" relative="1" as="geometry">
            <mxPoint x="-140" y="900" as="sourcePoint" />
            <mxPoint x="-10" y="780" as="targetPoint" />
          </mxGeometry>
        </mxCell>
        <mxCell id="XXfVhE3nksT0GZ8cm9VU-70" value="172.16.182.126/27" style="text;html=1;align=center;verticalAlign=middle;resizable=0;points=[];autosize=1;strokeColor=none;fillColor=none;rotation=-40;" vertex="1" parent="1">
          <mxGeometry x="-110" y="790" width="120" height="30" as="geometry" />
        </mxCell>
        <mxCell id="XXfVhE3nksT0GZ8cm9VU-72" value="&quot;REDHOSTS&quot;" style="text;html=1;align=center;verticalAlign=middle;resizable=0;points=[];autosize=1;strokeColor=none;fillColor=none;rotation=-45;" vertex="1" parent="1">
          <mxGeometry x="-110" y="830" width="100" height="30" as="geometry" />
        </mxCell>
        <mxCell id="XXfVhE3nksT0GZ8cm9VU-73" value="ETH2" style="rounded=1;whiteSpace=wrap;html=1;" vertex="1" parent="1">
          <mxGeometry x="80" y="765" width="30" height="15" as="geometry" />
        </mxCell>
        <mxCell id="XXfVhE3nksT0GZ8cm9VU-74" value="" style="endArrow=none;html=1;rounded=0;" edge="1" parent="1">
          <mxGeometry width="50" height="50" relative="1" as="geometry">
            <mxPoint x="220" y="880" as="sourcePoint" />
            <mxPoint x="110" y="780" as="targetPoint" />
          </mxGeometry>
        </mxCell>
        <mxCell id="XXfVhE3nksT0GZ8cm9VU-75" value="&lt;font style=&quot;font-size: 10px;&quot;&gt;172.16.140.6/29&lt;/font&gt;" style="text;whiteSpace=wrap;html=1;rotation=35;" vertex="1" parent="1">
          <mxGeometry x="110" y="780" width="80" height="15" as="geometry" />
        </mxCell>
        <mxCell id="XXfVhE3nksT0GZ8cm9VU-76" value="&quot;REDINTDMZ&quot;" style="text;whiteSpace=wrap;fontSize=10;rotation=45;" vertex="1" parent="1">
          <mxGeometry x="125" y="820" width="50" height="20" as="geometry" />
        </mxCell>
        <mxCell id="XXfVhE3nksT0GZ8cm9VU-77" value="lo" style="rounded=1;whiteSpace=wrap;html=1;" vertex="1" parent="1">
          <mxGeometry x="-10" y="720" width="30" height="15" as="geometry" />
        </mxCell>
        <mxCell id="XXfVhE3nksT0GZ8cm9VU-78" value="" style="endArrow=classic;html=1;rounded=0;exitX=0;exitY=0;exitDx=0;exitDy=0;" edge="1" parent="1" source="XXfVhE3nksT0GZ8cm9VU-77">
          <mxGeometry width="50" height="50" relative="1" as="geometry">
            <mxPoint x="-80" y="760" as="sourcePoint" />
            <mxPoint x="-104.5" y="720" as="targetPoint" />
          </mxGeometry>
        </mxCell>
        <mxCell id="XXfVhE3nksT0GZ8cm9VU-79" value="127.0.0.1/8" style="text;whiteSpace=wrap;" vertex="1" parent="1">
          <mxGeometry x="-80" y="700" width="90" height="40" as="geometry" />
        </mxCell>
        <mxCell id="XXfVhE3nksT0GZ8cm9VU-81" value="" style="endArrow=none;html=1;rounded=0;" edge="1" parent="1">
          <mxGeometry width="50" height="50" relative="1" as="geometry">
            <mxPoint x="-230" y="900" as="sourcePoint" />
            <mxPoint x="-70" y="900" as="targetPoint" />
          </mxGeometry>
        </mxCell>
        <mxCell id="XXfVhE3nksT0GZ8cm9VU-82" value="" style="endArrow=none;html=1;rounded=0;" edge="1" parent="1">
          <mxGeometry width="50" height="50" relative="1" as="geometry">
            <mxPoint x="-240" y="950" as="sourcePoint" />
            <mxPoint x="-230" y="900" as="targetPoint" />
          </mxGeometry>
        </mxCell>
        <mxCell id="XXfVhE3nksT0GZ8cm9VU-83" value="&lt;div&gt;red-host-1&lt;/div&gt;.106&lt;div&gt;P: 22&lt;/div&gt;&lt;div&gt;Linux&lt;/div&gt;" style="ellipse;whiteSpace=wrap;html=1;aspect=fixed;" vertex="1" parent="1">
          <mxGeometry x="-310" y="920" width="80" height="80" as="geometry" />
        </mxCell>
        <mxCell id="XXfVhE3nksT0GZ8cm9VU-86" value="" style="endArrow=none;html=1;rounded=0;" edge="1" parent="1">
          <mxGeometry width="50" height="50" relative="1" as="geometry">
            <mxPoint x="-200" y="1030" as="sourcePoint" />
            <mxPoint x="-190" y="900" as="targetPoint" />
          </mxGeometry>
        </mxCell>
        <mxCell id="XXfVhE3nksT0GZ8cm9VU-87" value="&lt;div&gt;red-host-2&lt;/div&gt;.110&lt;div&gt;P: 22,80&lt;/div&gt;&lt;div&gt;Linux&lt;/div&gt;" style="ellipse;whiteSpace=wrap;html=1;aspect=fixed;" vertex="1" parent="1">
          <mxGeometry x="-245" y="1020" width="80" height="80" as="geometry" />
        </mxCell>
        <mxCell id="XXfVhE3nksT0GZ8cm9VU-88" value="&lt;div&gt;red-host-3&lt;/div&gt;.114&lt;div&gt;P: 22&lt;/div&gt;&lt;div&gt;Linux&lt;/div&gt;" style="ellipse;whiteSpace=wrap;html=1;aspect=fixed;" vertex="1" parent="1">
          <mxGeometry x="-180" y="930" width="80" height="80" as="geometry" />
        </mxCell>
        <mxCell id="XXfVhE3nksT0GZ8cm9VU-89" value="&lt;div&gt;red-host-4&lt;/div&gt;.118&lt;div&gt;P: 22&lt;/div&gt;&lt;div&gt;Linux&lt;/div&gt;" style="ellipse;whiteSpace=wrap;html=1;aspect=fixed;" vertex="1" parent="1">
          <mxGeometry x="-110" y="1020" width="80" height="80" as="geometry" />
        </mxCell>
        <mxCell id="XXfVhE3nksT0GZ8cm9VU-91" value="" style="endArrow=none;html=1;rounded=0;" edge="1" parent="1" source="XXfVhE3nksT0GZ8cm9VU-88">
          <mxGeometry width="50" height="50" relative="1" as="geometry">
            <mxPoint x="-190" y="950" as="sourcePoint" />
            <mxPoint x="-140" y="900" as="targetPoint" />
          </mxGeometry>
        </mxCell>
        <mxCell id="XXfVhE3nksT0GZ8cm9VU-92" value="" style="endArrow=none;html=1;rounded=0;entryX=0.25;entryY=1;entryDx=0;entryDy=0;exitX=0.43;exitY=0.03;exitDx=0;exitDy=0;exitPerimeter=0;" edge="1" parent="1" source="XXfVhE3nksT0GZ8cm9VU-89">
          <mxGeometry width="50" height="50" relative="1" as="geometry">
            <mxPoint x="-130" y="940" as="sourcePoint" />
            <mxPoint x="-115" y="900" as="targetPoint" />
            <Array as="points">
              <mxPoint x="-70" y="900" />
            </Array>
          </mxGeometry>
        </mxCell>
        <mxCell id="XXfVhE3nksT0GZ8cm9VU-94" value="Ports to recon 1980-1989" style="text;html=1;align=center;verticalAlign=middle;resizable=0;points=[];autosize=1;strokeColor=none;fillColor=none;" vertex="1" parent="1">
          <mxGeometry x="-280" y="1098" width="160" height="30" as="geometry" />
        </mxCell>
        <mxCell id="XXfVhE3nksT0GZ8cm9VU-95" value="&lt;div&gt;Open UDP Ports&lt;/div&gt;1984, 1989&amp;nbsp;&lt;div&gt;Open TCP Ports&lt;/div&gt;&lt;div&gt;1980,1982,1988,1989&lt;/div&gt;" style="text;html=1;align=center;verticalAlign=middle;resizable=0;points=[];autosize=1;strokeColor=none;fillColor=none;" vertex="1" parent="1">
          <mxGeometry x="-270" y="1115" width="140" height="70" as="geometry" />
        </mxCell>
        <mxCell id="XXfVhE3nksT0GZ8cm9VU-107" value="&lt;div&gt;RED-POP2&lt;/div&gt;" style="rounded=1;whiteSpace=wrap;html=1;" vertex="1" parent="1">
          <mxGeometry x="190" y="880" width="120" height="60" as="geometry" />
        </mxCell>
        <mxCell id="XXfVhE3nksT0GZ8cm9VU-108" value="ETH1" style="rounded=1;whiteSpace=wrap;html=1;" vertex="1" parent="1">
          <mxGeometry x="280" y="925" width="30" height="15" as="geometry" />
        </mxCell>
        <mxCell id="XXfVhE3nksT0GZ8cm9VU-109" value="" style="endArrow=none;html=1;rounded=0;" edge="1" parent="1">
          <mxGeometry width="50" height="50" relative="1" as="geometry">
            <mxPoint x="309.16999999999996" y="1020" as="sourcePoint" />
            <mxPoint x="309.16999999999996" y="940" as="targetPoint" />
          </mxGeometry>
        </mxCell>
        <mxCell id="XXfVhE3nksT0GZ8cm9VU-110" value="172.16.140.62/27" style="text;html=1;align=center;verticalAlign=middle;resizable=0;points=[];autosize=1;strokeColor=none;fillColor=none;" vertex="1" parent="1">
          <mxGeometry x="300" y="930" width="120" height="30" as="geometry" />
        </mxCell>
        <mxCell id="XXfVhE3nksT0GZ8cm9VU-111" value="ETH0" style="rounded=1;whiteSpace=wrap;html=1;" vertex="1" parent="1">
          <mxGeometry x="190" y="881" width="30" height="15" as="geometry" />
        </mxCell>
        <mxCell id="XXfVhE3nksT0GZ8cm9VU-113" value="172.16.140.5/29" style="text;html=1;align=center;verticalAlign=middle;resizable=0;points=[];autosize=1;strokeColor=none;fillColor=none;" vertex="1" parent="1">
          <mxGeometry x="200" y="850" width="110" height="30" as="geometry" />
        </mxCell>
        <mxCell id="XXfVhE3nksT0GZ8cm9VU-118" value="&quot;REDINTDMZ2&quot;" style="text;html=1;align=center;verticalAlign=middle;resizable=0;points=[];autosize=1;strokeColor=none;fillColor=none;" vertex="1" parent="1">
          <mxGeometry x="305" y="970" width="110" height="30" as="geometry" />
        </mxCell>
        <mxCell id="XXfVhE3nksT0GZ8cm9VU-119" value="lo" style="rounded=1;whiteSpace=wrap;html=1;" vertex="1" parent="1">
          <mxGeometry x="190" y="925" width="30" height="15" as="geometry" />
        </mxCell>
        <mxCell id="XXfVhE3nksT0GZ8cm9VU-120" value="" style="endArrow=classic;html=1;rounded=0;exitX=0;exitY=1;exitDx=0;exitDy=0;" edge="1" parent="1" source="XXfVhE3nksT0GZ8cm9VU-119">
          <mxGeometry width="50" height="50" relative="1" as="geometry">
            <mxPoint x="110" y="950" as="sourcePoint" />
            <mxPoint x="100" y="940" as="targetPoint" />
          </mxGeometry>
        </mxCell>
        <mxCell id="XXfVhE3nksT0GZ8cm9VU-121" value="127.0.0.1/8&amp;nbsp;" style="text;html=1;align=center;verticalAlign=middle;resizable=0;points=[];autosize=1;strokeColor=none;fillColor=none;" vertex="1" parent="1">
          <mxGeometry x="100" y="917" width="90" height="30" as="geometry" />
        </mxCell>
        <mxCell id="XXfVhE3nksT0GZ8cm9VU-122" value="" style="endArrow=none;html=1;rounded=0;" edge="1" parent="1">
          <mxGeometry width="50" height="50" relative="1" as="geometry">
            <mxPoint x="240" y="1020" as="sourcePoint" />
            <mxPoint x="390" y="1020" as="targetPoint" />
            <Array as="points">
              <mxPoint x="310" y="1020" />
            </Array>
          </mxGeometry>
        </mxCell>
        <mxCell id="XXfVhE3nksT0GZ8cm9VU-123" value="" style="endArrow=none;html=1;rounded=0;" edge="1" parent="1">
          <mxGeometry width="50" height="50" relative="1" as="geometry">
            <mxPoint x="190" y="1070" as="sourcePoint" />
            <mxPoint x="240" y="1020" as="targetPoint" />
          </mxGeometry>
        </mxCell>
        <mxCell id="XXfVhE3nksT0GZ8cm9VU-124" value="" style="endArrow=none;html=1;rounded=0;" edge="1" parent="1" source="XXfVhE3nksT0GZ8cm9VU-126">
          <mxGeometry width="50" height="50" relative="1" as="geometry">
            <mxPoint x="340" y="1070" as="sourcePoint" />
            <mxPoint x="390" y="1020" as="targetPoint" />
          </mxGeometry>
        </mxCell>
        <mxCell id="XXfVhE3nksT0GZ8cm9VU-125" value="&lt;div&gt;red-int-dmz2-host-1&lt;/div&gt;.33&lt;div&gt;Ports: 22,80&lt;/div&gt;&lt;div&gt;TCP: 2305,&lt;/div&gt;&lt;div&gt;2800,&lt;span style=&quot;background-color: initial;&quot;&gt;2828&lt;/span&gt;&lt;/div&gt;" style="ellipse;whiteSpace=wrap;html=1;aspect=fixed;" vertex="1" parent="1">
          <mxGeometry x="125" y="1063" width="100" height="100" as="geometry" />
        </mxCell>
        <mxCell id="XXfVhE3nksT0GZ8cm9VU-126" value="&lt;div&gt;red-int-dmz2-host-2&lt;/div&gt;.35&lt;div&gt;P:22&lt;/div&gt;" style="ellipse;whiteSpace=wrap;html=1;aspect=fixed;" vertex="1" parent="1">
          <mxGeometry x="360" y="1048" width="130" height="130" as="geometry" />
        </mxCell>
        <mxCell id="XXfVhE3nksT0GZ8cm9VU-128" value="UDP:&amp;nbsp;2000,2011,2200,2250,2999" style="text;html=1;align=center;verticalAlign=middle;resizable=0;points=[];autosize=1;strokeColor=none;fillColor=none;" vertex="1" parent="1">
          <mxGeometry x="70" y="1168" width="200" height="30" as="geometry" />
        </mxCell>
        <mxCell id="XXfVhE3nksT0GZ8cm9VU-132" value="172.16.120.9" style="text;html=1;align=center;verticalAlign=middle;resizable=0;points=[];autosize=1;strokeColor=none;fillColor=none;" vertex="1" parent="1">
          <mxGeometry x="163" y="598" width="90" height="30" as="geometry" />
        </mxCell>
        <mxCell id="XXfVhE3nksT0GZ8cm9VU-136" value="&lt;span style=&quot;text-wrap-mode: wrap;&quot;&gt;172.16.120.1/29&lt;/span&gt;" style="text;html=1;align=center;verticalAlign=middle;resizable=0;points=[];autosize=1;strokeColor=none;fillColor=none;" vertex="1" parent="1">
          <mxGeometry x="150" y="430" width="110" height="30" as="geometry" />
        </mxCell>
      </root>
    </mxGraphModel>
  </diagram>
</mxfile>
